<?xml version="1.0" encoding="utf-8"?>
<!-- Generator: Adobe Illustrator 23.1.0, SVG Export Plug-In . SVG Version: 6.00 Build 0)  -->
<svg version="1.1" id="Layer_1" xmlns="http://www.w3.org/2000/svg" xmlns:xlink="http://www.w3.org/1999/xlink" x="0px" y="0px"
	 viewBox="0 0 122.9 122.9" style="enable-background:new 0 0 122.9 122.9;" xml:space="preserve">
<style type="text/css">
	.st0{fill:#FFFFFF;}
</style>
<g>
	<path class="st0" d="M61.4,0c17,0,32.3,6.9,43.4,18s18,26.5,18,43.4s-6.9,32.3-18,43.4c-11.1,11.1-26.5,18-43.4,18
		s-32.3-6.9-43.4-18C6.9,93.8,0,78.4,0,61.4S6.9,29.1,18,18C29.1,6.9,44.5,0,61.4,0L61.4,0z M103.7,27.8l-75.9,75.9
		c9.2,7.4,20.9,11.8,33.7,11.8c14.9,0,28.4-6,38.2-15.8s15.8-23.3,15.8-38.2C115.4,48.7,111,37,103.7,27.8L103.7,27.8z M22.3,98.6
		l76.3-76.3C88.9,13.1,75.8,7.5,61.4,7.5c-14.9,0-28.4,6-38.2,15.8C13.5,33,7.5,46.5,7.5,61.4C7.5,75.8,13.1,88.9,22.3,98.6
		L22.3,98.6z"/>
</g>
</svg>
