<?xml version="1.0" encoding="utf-8"?>
<!-- Generator: Adobe Illustrator 23.1.0, SVG Export Plug-In . SVG Version: 6.00 Build 0)  -->
<svg version="1.1" id="Layer_1" xmlns="http://www.w3.org/2000/svg" xmlns:xlink="http://www.w3.org/1999/xlink" x="0px" y="0px"
	 viewBox="0 0 122.9 82.4" style="enable-background:new 0 0 122.9 82.4;" xml:space="preserve">
<style type="text/css">
	.st0{fill-rule:evenodd;clip-rule:evenodd;fill:#FFFFFF;}
</style>
<g>
	<path class="st0" d="M5.5,0h85.4c1.5,0,2.9,0.6,3.9,1.6s1.6,2.4,1.6,3.9v5.7c-0.8-0.5-1.5-0.9-2.3-1.4c-0.7,0.5-1.3,1-2,1.5V7.2
		L79.4,18.1c-3.1,1.2-6.3,2-9.5,2.5L89.2,4.2H7l0,0l42,34.3l7.8-6.7c0.1,1.8,0.2,3.6,0.3,5.3l-6.8,5.8l0,0c-0.8,0.7-1.9,0.7-2.7,0
		l-10.2-8.3l0,0L6.6,65.5h57.7c0.7,1.5,1.4,2.9,2.3,4.3h-61c-1.5,0-2.9-0.6-3.9-1.6c-1-1-1.6-2.4-1.6-3.9V5.5C0,4,0.6,2.6,1.6,1.6
		C2.6,0.6,4,0,5.5,0L5.5,0L5.5,0z M122.8,29.1c1.4,29-9.3,46.2-28.3,53.3C76.1,75.7,65.2,59.3,66,28.6c9.7,0.5,19.1-1.6,28.3-8.7
		C102.5,25.1,112.9,30,122.8,29.1L122.8,29.1z M113.9,36.1c1,19.8-6.3,31.5-19.3,36.4c-0.1,0-0.2-0.1-0.3-0.1V30l0.2-0.1
		C100.1,33.4,107.2,36.7,113.9,36.1L113.9,36.1z M119.5,31.6c1.3,25.7-8.2,40.9-25,47.2c-16.3-5.9-25.9-20.5-25.2-47.6
		c8.6,0.5,16.9-1.4,25.1-7.7C101.6,28.1,110.8,32.4,119.5,31.6L119.5,31.6z M4.2,61.9l29.9-30L4.2,7.5V61.9L4.2,61.9L4.2,61.9z"/>
</g>
</svg>
