<?xml version="1.0" encoding="utf-8"?>
<!-- Generator: Adobe Illustrator 23.1.0, SVG Export Plug-In . SVG Version: 6.00 Build 0)  -->
<svg version="1.1" id="Layer_1" xmlns="http://www.w3.org/2000/svg" xmlns:xlink="http://www.w3.org/1999/xlink" x="0px" y="0px"
	 viewBox="0 0 122.9 84" style="enable-background:new 0 0 122.9 84;" xml:space="preserve">
<style type="text/css">
	.st0{fill:#FFFFFF;}
</style>
<title>call-message</title>
<path class="st0" d="M34.1,3h83c3.2,0,5.8,2.6,5.8,5.8v61.5c0,1.2-0.3,2.3-1,3.3c-0.1,0.3-0.3,0.6-0.6,0.8c-0.2,0.2-0.3,0.3-0.5,0.4
	c-1,0.9-2.3,1.3-3.7,1.3H68c0.4-1.5,0.5-3,0.4-4.4h47.2L84.8,39.2l-10.2,8.7l0,0c-0.8,0.7-2,0.7-2.8,0l-10.7-8.7l0,0l-9.7,9.7
	c-1.3-0.9-2.8-1.5-4.4-1.9l10.6-10.7L37.9,20.3c-0.1-1.2-0.3-2.3-0.7-3.4l-0.8-3.5l36.7,29.9l42.1-35.9H35.1L34.1,3z M17.5,31
	c0.9,5.2,2.5,10.2,4.7,14.9c2.6,5.4,6.1,10.4,10.4,14.6c0.3,0.3,0.7,0.5,1.2,0.5c0.7-0.1,1.4-0.3,2-0.7c0.7-0.4,1.4-0.9,2.1-1.4
	c3.1-2.2,7-4.9,10.3-1.8c0.1,0.1,0.1,0.1,0.2,0.2l10.5,11.5c0,0,0.1,0.1,0.1,0.1c1.2,1.7,1.5,3.8,0.8,5.8c-0.8,2.2-2.2,4.2-3.9,5.8
	c-2.2,2-5,3.2-7.9,3.5c-2.8,0.3-5.6,0.1-8.3-0.4c-4.1-0.7-7.9-2.3-11.3-4.7c-3.7-2.7-7-5.9-9.9-9.4L18.2,69
	c-1.5-1.8-3.2-3.7-4.7-5.9C7.4,54.5,3.2,44.7,1,34.3c-1.7-8.8-1.4-17.5,2.3-24.7c2-4,5.1-7.2,9-8.7c3.4-1.3,7.5-1.3,12.1,0.6
	c0.5,0.2,0.9,0.7,1,1.2l3.7,16.6c0.7,1.6,0.4,3.6-0.8,4.9c-1.2,1.2-2.7,2.1-4.3,2.5c-0.6,0.2-1.2,0.5-1.9,0.7
	C19.9,28.2,17.3,29,17.5,31L17.5,31L17.5,31z M88.2,36.3l30.3,31.7V10.6L88.2,36.3L88.2,36.3z"/>
</svg>
