<?xml version="1.0" encoding="utf-8"?>
<!-- Generator: Adobe Illustrator 23.1.0, SVG Export Plug-In . SVG Version: 6.00 Build 0)  -->
<svg version="1.1" id="Layer_1" xmlns="http://www.w3.org/2000/svg" xmlns:xlink="http://www.w3.org/1999/xlink" x="0px" y="0px"
	 viewBox="0 0 122.9 101.2" style="enable-background:new 0 0 122.9 101.2;" xml:space="preserve">
<style type="text/css">
	.st0{fill-rule:evenodd;clip-rule:evenodd;fill:#FFFFFF;}
</style>
<g>
	<path class="st0" d="M35.3,16.5h72.8v30.7H35.3L35.3,16.5L35.3,16.5z M23.4,91.7c-0.7,2.2-1.6,4.1-2.8,5.5h88.5h0
		c3.2-0.2,5.6-1,7.2-2.5c1.6-1.5,2.4-3.7,2.6-6.6V4H24.4V84C24.4,87.4,24.4,88.4,23.4,91.7L23.4,91.7L23.4,91.7z M13.1,101.1
		c-0.4,0-0.9,0-1.4,0c-1.8-0.1-3.6-0.7-5.2-1.6C3,97.4,0.3,93.4,0,88.2c0-0.1,0-0.2,0-0.3V17.5c0-1.1,0.9-2,2-2h18.4V2
		c0-1.1,0.9-2,2-2h98.5c1.1,0,2,0.9,2,2v86.1c0,0.1,0,0.2,0,0.3c-0.3,3.9-1.6,6.9-3.8,9.1c-2.3,2.2-5.5,3.4-9.7,3.6
		c-0.1,0-0.2,0-0.3,0H13.1L13.1,101.1L13.1,101.1z M12.1,97.2c0.1,0,0.2,0,0.3,0h0.7c0.8-0.1,1.6-0.3,2.3-0.7c4.4-2.3,5-7.9,5-12.4
		V19.5H4v68.4C4,88,4,88,4,88c0.2,3.8,2.1,6.6,4.6,8.1C9.7,96.7,10.8,97.1,12.1,97.2L12.1,97.2L12.1,97.2L12.1,97.2z M40.9,24.1h3.9
		l5.1,8.5v-8.5h3.9v15.4h-3.9l-5-8.5v8.5h-3.9L40.9,24.1L40.9,24.1z M57.2,24.1h11.2v3.3h-7v2.5h6.5V33h-6.5v3h7.2v3.5H57.2V24.1
		L57.2,24.1L57.2,24.1z M70.1,24.1h4l1.4,8.6l2.1-8.6h3.9l2.1,8.6l1.4-8.6h4l-3,15.4h-4.1l-2.4-9.7l-2.4,9.7h-4.1L70.1,24.1
		L70.1,24.1L70.1,24.1z M90.3,34.5l4-0.3c0.1,0.7,0.3,1.3,0.5,1.7c0.4,0.6,1,0.9,1.8,0.9c0.6,0,1.1-0.2,1.4-0.5s0.5-0.7,0.5-1.1
		c0-0.4-0.2-0.8-0.5-1.1c-0.3-0.3-1-0.6-2.1-0.9c-1.8-0.5-3.1-1.1-3.9-1.9c-0.8-0.8-1.2-1.8-1.2-3c0-0.8,0.2-1.5,0.6-2.2
		c0.4-0.7,1-1.3,1.8-1.7c0.8-0.4,1.9-0.6,3.3-0.6c1.7,0,3,0.4,3.9,1.1c0.9,0.7,1.4,1.9,1.6,3.5l-3.9,0.3c-0.1-0.7-0.3-1.2-0.7-1.5
		c-0.3-0.3-0.8-0.5-1.4-0.5c-0.5,0-0.8,0.1-1.1,0.4s-0.4,0.5-0.4,0.9c0,0.2,0.1,0.5,0.3,0.7c0.2,0.2,0.7,0.4,1.4,0.6
		c1.8,0.5,3.1,0.9,3.9,1.4c0.8,0.5,1.4,1,1.7,1.7s0.5,1.4,0.5,2.3c0,1-0.2,1.9-0.7,2.7c-0.5,0.8-1.2,1.5-2,1.9s-1.9,0.7-3.3,0.7
		c-2.3,0-3.9-0.5-4.8-1.5C90.9,37.3,90.4,36,90.3,34.5L90.3,34.5L90.3,34.5z M35.8,60.8c-1.1,0-2-0.9-2-2s0.9-2,2-2h30.3
		c1.1,0,2,0.9,2,2s-0.9,2-2,2H35.8L35.8,60.8z M74.7,60.8c-1.1,0-2-0.9-2-2c0-1.1,0.9-2,2-2h32.6c1.1,0,2,0.9,2,2c0,1.1-0.9,2-2,2
		H74.7L74.7,60.8z M74.7,72.4c-1.1,0-2-0.9-2-2s0.9-2,2-2h32.6c1.1,0,2,0.9,2,2s-0.9,2-2,2H74.7L74.7,72.4z M74.7,83.9
		c-1.1,0-2-0.9-2-2s0.9-2,2-2h32.6c1.1,0,2,0.9,2,2s-0.9,2-2,2H74.7L74.7,83.9z M35.8,83.9c-1.1,0-2-0.9-2-2s0.9-2,2-2h30.3
		c1.1,0,2,0.9,2,2s-0.9,2-2,2H35.8L35.8,83.9z M36.8,72.4c-1.1,0-2-0.9-2-2s0.9-2,2-2H67c1.1,0,2,0.9,2,2s-0.9,2-2,2H36.8L36.8,72.4
		z"/>
</g>
</svg>
