<?xml version="1.0" encoding="utf-8"?>
<!-- Generator: Adobe Illustrator 23.1.0, SVG Export Plug-In . SVG Version: 6.00 Build 0)  -->
<svg version="1.1" id="Layer_1" xmlns="http://www.w3.org/2000/svg" xmlns:xlink="http://www.w3.org/1999/xlink" x="0px" y="0px"
	 viewBox="0 0 59.2 122.9" style="enable-background:new 0 0 59.2 122.9;" xml:space="preserve">
<style type="text/css">
	.st0{fill-rule:evenodd;clip-rule:evenodd;fill:#FFFFFF;}
</style>
<title>successful-businessman</title>
<path class="st0" d="M29.7,41.4c5,0,9.1,4.1,9.1,9.1l0,0c0,5-3.3,9.1-8.3,9.1s-9.8-4.1-9.8-9.1C20.7,45.4,24.7,41.4,29.7,41.4
	C29.7,41.4,29.7,41.4,29.7,41.4z M2.9,113.5H18V75.3c-0.6-0.4-1-0.9-1.4-1.5l-12.9-22c-1.4-2.3-0.7-5.3,1.6-6.7s5.3-0.7,6.7,1.6
	c0,0.1,0.1,0.1,0.1,0.2l9.9,16.7c5.1-0.5,10.3-0.5,15.4,0l10-17c1.4-2.3,4.3-3.1,6.7-1.7s3.1,4.3,1.7,6.7l0,0L42.6,73.7
	c-0.3,0.5-0.7,1-1.2,1.3v38.4h15.2v9.3H2.9C2.9,122.9,2.9,113.5,2.9,113.5z M28.2,113.5h3V94.4c-1,0.2-2,0.2-3,0V113.5z M31.4,8.5
	c0,0.9-0.7,1.6-1.6,1.6c-0.9,0-1.6-0.7-1.6-1.6V1.6c0-0.9,0.7-1.6,1.6-1.6c0.9,0,1.6,0.7,1.6,1.6V8.5L31.4,8.5z M41,12.5
	c-0.4,0.8-1.4,1.1-2.2,0.7c-0.8-0.4-1.1-1.4-0.7-2.2c0,0,0-0.1,0.1-0.1l2.5-4.5c0.5-0.7,1.5-0.9,2.3-0.4c0.6,0.4,0.8,1.2,0.6,1.9
	L41,12.5L41,12.5z M21.3,10.9c0.5,0.8,0.2,1.8-0.5,2.2c-0.8,0.5-1.8,0.2-2.2-0.5c0,0,0-0.1-0.1-0.1L15.9,8c-0.4-0.8-0.1-1.8,0.7-2.2
	c0.8-0.4,1.7-0.1,2.1,0.6L21.3,10.9L21.3,10.9z M7.6,24.9l1.9,4.4l4.7,0.4c0.2,0,0.4,0.2,0.3,0.4c0,0,0,0,0,0c0,0.1-0.1,0.2-0.1,0.3
	l0,0l-3.6,3.1l1.1,4.6c0,0.2-0.1,0.4-0.3,0.5c-0.1,0-0.2,0-0.3,0l-4.1-2.4l-4.1,2.4c-0.2,0.1-0.4,0-0.5-0.1c0-0.1,0-0.2,0-0.3l0,0
	l1-4.6l-3.6-3.1C0,30.2,0,30,0.1,29.8c0.1-0.1,0.2-0.1,0.3-0.1l4.7-0.4L7,24.9c0.1-0.2,0.3-0.3,0.5-0.2C7.6,24.8,7.6,24.8,7.6,24.9
	L7.6,24.9z M52.3,24.9l1.9,4.4l4.7,0.4c0.2,0,0.4,0.2,0.3,0.4c0,0,0,0,0,0c0,0.1-0.1,0.2-0.1,0.3l0,0l-3.6,3.1l1.1,4.6
	c0,0.2-0.1,0.4-0.3,0.5c-0.1,0-0.2,0-0.3,0l-4.1-2.4l-4.1,2.4c-0.2,0.1-0.4,0-0.5-0.1c0-0.1,0-0.2,0-0.3l0,0l1-4.6l-3.6-3.1
	c-0.1-0.2-0.1-0.4,0-0.5c0.1-0.1,0.2-0.1,0.3-0.1l4.7-0.4l1.9-4.4c0.1-0.2,0.3-0.3,0.5-0.2C52.2,24.8,52.3,24.8,52.3,24.9L52.3,24.9
	z M30.4,13l3.3,7.8l8.5,0.8c0.4,0,0.6,0.4,0.6,0.7c0,0.2-0.1,0.3-0.2,0.5l0,0l-6.4,5.6l1.9,8.3c0.1,0.4-0.1,0.7-0.5,0.8c0,0,0,0,0,0
	c-0.2,0-0.4,0-0.5-0.1L29.7,33l-7.3,4.4c-0.3,0.2-0.7,0.1-0.9-0.2c0,0,0,0,0,0c-0.1-0.2-0.1-0.3-0.1-0.5l0,0l1.9-8.3l-6.4-5.6
	c-0.3-0.2-0.3-0.7-0.1-1c0,0,0,0,0,0c0.1-0.1,0.3-0.2,0.5-0.2l8.4-0.8l3.3-7.8c0.1-0.3,0.5-0.5,0.9-0.4C30.2,12.7,30.3,12.8,30.4,13
	L30.4,13z M27.5,67.8l0.6-3h3l0.8,3C30.6,68.8,28.8,68.8,27.5,67.8L27.5,67.8z M26.1,83.4l2-13.1c1,0.3,2,0.3,3,0l2.2,13.1l-3.7,4.6
	L26.1,83.4L26.1,83.4z"/>
</svg>
