<?xml version="1.0" encoding="utf-8"?>
<!-- Generator: Adobe Illustrator 24.0.2, SVG Export Plug-In . SVG Version: 6.00 Build 0)  -->
<svg version="1.1" id="Layer_1" xmlns="http://www.w3.org/2000/svg" xmlns:xlink="http://www.w3.org/1999/xlink" x="0px" y="0px"
	 viewBox="0 0 456.3 235.9" style="enable-background:new 0 0 456.3 235.9;" xml:space="preserve">
<style type="text/css">
	.st0{fill:#0E0E0E;}
	.st1{fill:#D8A62A;}
</style>
<g>
	<g>
		<g>
			<path class="st0" d="M36.4,107.3c0-20.8,0-24.5-0.3-28.8c-0.3-4.5-1.5-6.7-6.4-7.6c-1.2-0.3-3.7-0.4-5-0.4
				c-0.6,0-1.2-0.3-1.2-0.8c0-0.8,0.7-1.1,2.4-1.1c3.4,0,7.4,0,10.7,0.1l6.1,0.3c1,0,30.5,0,33.9-0.1c2.8-0.1,5.2-0.4,6.4-0.7
				c0.7-0.1,1.3-0.7,2.1-0.7c0.4,0,0.6,0.5,0.6,1.2c0,0.9-0.7,2.5-1.2,6.3c-0.1,1.3-0.4,7.2-0.7,8.8c-0.1,0.7-0.4,1.5-1,1.5
				c-0.9,0-1.2-0.7-1.2-1.7c0-0.9-0.1-3.2-0.9-4.8c-1-2.1-2.5-3.7-10.5-4.5c-2.5-0.3-18.7-0.4-20.3-0.4c-0.6,0-0.9,0.4-0.9,1.3v36.8
				c0,0.9,0.1,1.3,0.9,1.3c1.9,0,20.2,0,23.6-0.3c3.6-0.3,5.6-0.5,7-1.9c1-1.1,1.6-1.7,2.2-1.7c0.4,0,0.7,0.3,0.7,1.1
				c0,0.8-0.7,3.1-1.2,7.5c-0.3,2.7-0.6,7.6-0.6,8.5c0,1.1,0,2.5-1,2.5c-0.7,0-1-0.5-1-1.2c0-1.3,0-2.7-0.6-4.4
				c-0.6-1.9-1.9-4.1-7.7-4.7c-4-0.4-18.7-0.7-21.2-0.7c-0.7,0-1,0.4-1,0.9v11.7c0,4.5-0.1,20,0,22.8c0.4,9.2,2.7,10.9,17.2,10.9
				c3.9,0,10.4,0,14.2-1.5c3.9-1.5,5.6-4.1,6.7-9.6c0.3-1.5,0.6-2,1.3-2c0.9,0,0.9,1.1,0.9,2c0,1.1-1.2,10.1-1.9,12.9
				c-1,3.5-2.2,3.5-8,3.5c-11.1,0-19.3-0.3-25.1-0.4c-5.8-0.3-9.3-0.4-11.6-0.4c-0.3,0-2.8,0-5.9,0.1c-3,0-6.4,0.3-8.6,0.3
				c-1.6,0-2.4-0.3-2.4-1.1c0-0.4,0.3-0.8,1.2-0.8c1.3,0,3.1-0.3,4.4-0.5c3-0.5,3.7-3.5,4.3-7.3c0.7-5.6,0.7-16.1,0.7-29V107.3z"/>
			<path class="st0" d="M139.3,131c0,19.6,0.6,28.2,3.3,30.6c2.4,2.1,6.2,3.1,17.8,3.1c7.9,0,14.4-0.1,17.9-4c1.9-2.1,3.4-5.5,3.9-8
				c0.1-1.1,0.4-1.7,1.3-1.7c0.7,0,0.9,0.5,0.9,2s-1,9.5-2.2,13.3c-1,3.1-1.5,3.6-9.3,3.6c-10.7,0-18.4-0.3-24.6-0.4
				c-6.2-0.3-10.8-0.4-15.1-0.4c-0.6,0-3.1,0.1-6.1,0.1c-3,0.1-6.2,0.3-8.4,0.3c-1.6,0-2.4-0.3-2.4-1.1c0-0.4,0.3-0.8,1.2-0.8
				c1.3,0,3.1-0.3,4.4-0.5c3-0.5,3.7-3.5,4.3-7.3c0.7-5.6,0.7-16.1,0.7-29v-23.5c0-20.8,0-24.5-0.3-28.8c-0.3-4.5-1.5-6.7-6.4-7.6
				c-1.2-0.3-3.7-0.4-5-0.4c-0.6,0-1.2-0.3-1.2-0.8c0-0.8,0.7-1.1,2.4-1.1c6.7,0,16,0.4,16.8,0.4s11.6-0.4,16-0.4
				c1.6,0,2.4,0.3,2.4,1.1c0,0.5-0.6,0.8-1.2,0.8c-1,0-3.1,0.1-4.9,0.4c-4.3,0.7-5.5,2.9-5.8,7.6c-0.3,4.3-0.3,8-0.3,28.8V131z"/>
			<path class="st1" d="M227,130.8c0,12.8,0,23.3,0.7,29c0.4,3.9,1.3,6.8,5.8,7.3c2.1,0.3,5.3,0.5,6.7,0.5c0.9,0,1.2,0.4,1.2,0.8
				c0,0.7-0.7,1.1-2.4,1.1c-8.2,0-17.5-0.4-18.2-0.4s-10.1,0.4-14.5,0.4c-1.6,0-2.4-0.3-2.4-1.1c0-0.4,0.3-0.8,1.2-0.8
				c1.3,0,3.1-0.3,4.4-0.5c3-0.5,3.7-3.5,4.3-7.3c0.7-5.6,0.7-16.1,0.7-29v-23.5c0-20.8,0-24.5-0.3-28.8c-0.3-4.5-1.8-6.8-5-7.5
				c-1.6-0.4-3.6-0.5-4.6-0.5c-0.6,0-1.2-0.3-1.2-0.8c0-0.8,0.7-1.1,2.4-1.1c4.9,0,14.2,0.4,15,0.4s10.1-0.4,14.5-0.4
				c1.6,0,2.4,0.3,2.4,1.1c0,0.5-0.6,0.8-1.2,0.8c-1,0-1.9,0.1-3.7,0.4c-4,0.7-5.2,2.9-5.5,7.6c-0.3,4.3-0.3,8-0.3,28.8V130.8z"/>
			<path class="st0" d="M311.4,130.8c0,12.8,0,23.3,0.7,29c0.4,3.9,1.3,6.8,5.8,7.3c2.1,0.3,5.3,0.5,6.7,0.5c0.9,0,1.2,0.4,1.2,0.8
				c0,0.7-0.7,1.1-2.4,1.1c-8.2,0-17.5-0.4-18.2-0.4s-10.1,0.4-14.5,0.4c-1.6,0-2.4-0.3-2.4-1.1c0-0.4,0.3-0.8,1.2-0.8
				c1.3,0,3.1-0.3,4.4-0.5c3-0.5,3.7-3.5,4.3-7.3c0.7-5.6,0.7-16.1,0.7-29V74.3L277,74.6c-9.2,0.1-12.7,1.1-15.1,4.3
				c-1.6,2.3-2.1,3.2-2.5,4.1c-0.4,1.1-0.9,1.3-1.5,1.3c-0.4,0-0.7-0.4-0.7-1.2c0-1.3,3-12.8,3.3-13.9c0.3-0.8,0.9-2.5,1.5-2.5
				c1,0,2.5,1.3,6.5,1.6c4.3,0.4,9.9,0.7,11.7,0.7h55.6c4.7,0,8.2-0.3,10.5-0.7c2.2-0.3,3.6-0.7,4.2-0.7c0.7,0,0.7,0.8,0.7,1.6
				c0,4-0.4,13.2-0.4,14.7c0,1.2-0.4,1.7-1,1.7c-0.7,0-1-0.4-1.2-2.3l-0.1-1.5c-0.4-4-4-7.1-18.2-7.3l-18.7-0.3V130.8z"/>
			<path class="st0" d="M382.2,107.3c0-20.8,0-24.5-0.3-28.8c-0.3-4.5-1.5-6.7-6.4-7.6c-1.2-0.3-3.7-0.4-5-0.4
				c-0.6,0-1.2-0.3-1.2-0.8c0-0.8,0.7-1.1,2.4-1.1c3.4,0,7.4,0,10.7,0.1l6.1,0.3c1,0,30.5,0,33.9-0.1c2.8-0.1,5.2-0.4,6.4-0.7
				c0.7-0.1,1.3-0.7,2.1-0.7c0.4,0,0.6,0.5,0.6,1.2c0,0.9-0.7,2.5-1.2,6.3c-0.1,1.3-0.4,7.2-0.7,8.8c-0.1,0.7-0.4,1.5-1,1.5
				c-0.9,0-1.2-0.7-1.2-1.7c0-0.9-0.1-3.2-0.9-4.8c-1-2.1-2.5-3.7-10.5-4.5c-2.5-0.3-18.7-0.4-20.3-0.4c-0.6,0-0.9,0.4-0.9,1.3v36.8
				c0,0.9,0.1,1.3,0.9,1.3c1.9,0,20.2,0,23.6-0.3c3.6-0.3,5.6-0.5,7-1.9c1-1.1,1.6-1.7,2.2-1.7c0.4,0,0.7,0.3,0.7,1.1
				c0,0.8-0.7,3.1-1.2,7.5c-0.3,2.7-0.6,7.6-0.6,8.5c0,1.1,0,2.5-1,2.5c-0.7,0-1-0.5-1-1.2c0-1.3,0-2.7-0.6-4.4
				c-0.6-1.9-1.9-4.1-7.7-4.7c-4-0.4-18.7-0.7-21.2-0.7c-0.7,0-1,0.4-1,0.9v11.7c0,4.5-0.1,20,0,22.8c0.4,9.2,2.7,10.9,17.2,10.9
				c3.9,0,10.4,0,14.2-1.5c3.9-1.5,5.6-4.1,6.7-9.6c0.3-1.5,0.6-2,1.3-2c0.9,0,0.9,1.1,0.9,2c0,1.1-1.2,10.1-1.9,12.9
				c-1,3.5-2.2,3.5-8,3.5c-11.1,0-19.3-0.3-25.1-0.4c-5.8-0.3-9.3-0.4-11.6-0.4c-0.3,0-2.8,0-5.9,0.1c-3,0-6.4,0.3-8.6,0.3
				c-1.6,0-2.4-0.3-2.4-1.1c0-0.4,0.3-0.8,1.2-0.8c1.3,0,3.1-0.3,4.4-0.5c3-0.5,3.7-3.5,4.3-7.3c0.7-5.6,0.7-16.1,0.7-29V107.3z"/>
		</g>
		<g>
			<path class="st1" d="M30,189.6c0.1-0.6,0.3-0.9,0.6-0.9c0.3,0,0.5,0.2,1,1.1l9.7,19.7l9.6-19.9c0.3-0.6,0.5-0.9,0.8-0.9
				s0.5,0.4,0.6,1.1l3.2,21.7c0.3,2.2,0.7,3.3,1.7,3.6c1,0.3,1.7,0.4,2.2,0.4c0.3,0,0.6,0,0.6,0.2c0,0.3-0.4,0.4-0.9,0.4
				c-0.9,0-5.8-0.1-7.2-0.2c-0.8-0.1-1-0.2-1-0.4c0-0.2,0.1-0.3,0.4-0.4c0.2-0.1,0.3-0.5,0.2-1.5l-2.1-15.4h-0.1l-7.7,15.8
				c-0.8,1.7-1,2-1.3,2s-0.7-0.7-1.2-1.8c-0.9-1.6-3.6-7-4.1-8c-0.3-0.7-2.4-4.9-3.7-7.6H31l-1.8,13.8c-0.1,0.6-0.1,1.1-0.1,1.7
				c0,0.7,0.5,1,1.1,1.1c0.6,0.1,1.1,0.2,1.5,0.2c0.3,0,0.5,0.1,0.5,0.2c0,0.3-0.3,0.4-0.9,0.4c-1.5,0-3.1-0.1-3.7-0.1
				c-0.7,0-2.4,0.1-3.5,0.1c-0.4,0-0.6-0.1-0.6-0.4c0-0.2,0.2-0.2,0.6-0.2c0.3,0,0.5,0,1.1-0.1c1-0.2,1.3-1.6,1.5-2.8L30,189.6z"/>
			<path class="st1" d="M76.3,206.9c-0.2,0-0.2,0.1-0.3,0.3l-1.9,4.9c-0.4,0.9-0.5,1.7-0.5,2.2c0,0.6,0.3,1.1,1.4,1.1h0.5
				c0.4,0,0.5,0.1,0.5,0.3c0,0.3-0.2,0.4-0.6,0.4c-1.1,0-2.7-0.1-3.8-0.1c-0.4,0-2.3,0.1-4.2,0.1c-0.5,0-0.7-0.1-0.7-0.4
				c0-0.2,0.1-0.3,0.4-0.3c0.3,0,0.8,0,1.1-0.1c1.6-0.2,2.3-1.4,3-3.2l8.9-22c0.4-1,0.6-1.4,1-1.4c0.3,0,0.5,0.3,0.9,1.1
				c0.9,1.9,6.5,16.1,8.8,21.5c1.3,3.2,2.4,3.7,3.1,3.9c0.5,0.1,1.1,0.1,1.5,0.1c0.3,0,0.5,0,0.5,0.3c0,0.3-0.3,0.4-1.6,0.4
				c-1.3,0-3.9,0-6.7-0.1c-0.6,0-1.1,0-1.1-0.3c0-0.2,0.1-0.3,0.5-0.3c0.2-0.1,0.5-0.4,0.3-0.8l-2.8-7.3c-0.1-0.2-0.2-0.2-0.4-0.2
				H76.3z M83.5,205.1c0.2,0,0.2-0.1,0.2-0.2l-3.2-8.7c0-0.1-0.1-0.3-0.2-0.3s-0.2,0.2-0.2,0.3l-3.3,8.7c0,0.1,0,0.2,0.1,0.2H83.5z"
				/>
			<path class="st1" d="M111,191.1l-5.3,0.1c-2.1,0.1-2.9,0.2-3.4,1c-0.4,0.5-0.5,1-0.6,1.2s-0.2,0.4-0.4,0.4
				c-0.2,0-0.3-0.2-0.3-0.6c0-0.6,0.7-3.8,0.7-4.1c0.1-0.5,0.2-0.7,0.4-0.7c0.3,0,0.6,0.4,1.5,0.4c1,0.1,2.4,0.2,3.5,0.2h14
				c1.1,0,1.9-0.1,2.4-0.2c0.5-0.1,0.8-0.2,1-0.2c0.2,0,0.3,0.2,0.3,0.7c0,0.7-0.1,3.2-0.1,4.1c0,0.4-0.1,0.6-0.3,0.6
				c-0.3,0-0.4-0.2-0.4-0.7l0-0.4c-0.1-0.9-1-1.9-4.2-2l-4.5-0.1v14.5c0,3.3,0,6.1,0.2,7.6c0.1,1,0.3,1.8,1.4,1.9
				c0.5,0.1,1.3,0.1,1.8,0.1c0.4,0,0.6,0.1,0.6,0.3c0,0.2-0.3,0.4-0.7,0.4c-2.3,0-4.6-0.1-5.6-0.1c-0.8,0-3,0.1-4.5,0.1
				c-0.5,0-0.7-0.1-0.7-0.4c0-0.2,0.1-0.3,0.6-0.3c0.5,0,1-0.1,1.3-0.1c0.7-0.1,0.9-0.9,1-1.9c0.2-1.5,0.2-4.3,0.2-7.5V191.1z"/>
			<path class="st1" d="M140.3,199.4c0-5.4,0-6.4-0.1-7.5c-0.1-1.2-0.4-1.8-1.5-2c-0.3-0.1-0.9-0.1-1.4-0.1c-0.4,0-0.6-0.1-0.6-0.3
				s0.2-0.3,0.8-0.3c1.9,0,4.1,0.1,4.9,0.1c1.2,0,3.9-0.1,5-0.1c2.2,0,4.6,0.2,6.5,1.5c1,0.7,2.4,2.5,2.4,4.9c0,2.6-1.1,5-4.7,7.9
				c3.2,4,5.6,7.1,7.7,9.3c2,2.1,3.4,2.3,4,2.4c0.4,0.1,0.7,0.1,1,0.1c0.3,0,0.4,0.1,0.4,0.3c0,0.3-0.2,0.4-0.7,0.4h-3.4
				c-2,0-2.9-0.2-3.8-0.7c-1.5-0.8-2.9-2.5-4.9-5.2c-1.4-1.9-3-4.4-3.5-4.9c-0.2-0.2-0.4-0.2-0.6-0.2l-3.1-0.1
				c-0.2,0-0.3,0.1-0.3,0.3v0.5c0,3.3,0,6.1,0.2,7.6c0.1,1,0.3,1.8,1.4,1.9c0.5,0.1,1.3,0.1,1.7,0.1c0.3,0,0.4,0.1,0.4,0.3
				c0,0.2-0.2,0.4-0.7,0.4c-2.1,0-4.7-0.1-5.2-0.1c-0.7,0-2.9,0.1-4.3,0.1c-0.5,0-0.7-0.1-0.7-0.4c0-0.2,0.1-0.3,0.6-0.3
				c0.5,0,1-0.1,1.3-0.1c0.7-0.1,0.9-0.9,1-1.9c0.2-1.5,0.2-4.3,0.2-7.5V199.4z M144.5,202.2c0,0.4,0.1,0.5,0.3,0.6
				c0.7,0.2,1.8,0.4,2.7,0.4c1.4,0,1.9-0.1,2.5-0.6c1.1-0.8,2.1-2.4,2.1-5.3c0-5-3.3-6.5-5.4-6.5c-0.9,0-1.5,0-1.9,0.1
				c-0.2,0.1-0.3,0.2-0.3,0.5V202.2z"/>
			<path class="st1" d="M175.9,199.4c0-5.4,0-6.4-0.1-7.5c-0.1-1.2-0.4-1.8-1.2-2c-0.4-0.1-0.9-0.1-1.3-0.1c-0.4,0-0.6-0.1-0.6-0.4
				c0-0.2,0.3-0.3,0.9-0.3c1.3,0,3.6,0.1,4.6,0.1c0.9,0,3-0.1,4.3-0.1c0.5,0,0.7,0.1,0.7,0.3c0,0.3-0.2,0.4-0.6,0.4
				c-0.4,0-0.6,0-1.1,0.1c-1,0.2-1.2,0.8-1.3,2c-0.1,1.1-0.1,2.1-0.1,7.5v6.2c0,3.4,0,6.2,0.1,7.8c0.1,1,0.4,1.6,1.4,1.7
				c0.5,0.1,1.3,0.1,1.8,0.1c0.4,0,0.6,0.1,0.6,0.3c0,0.2-0.3,0.4-0.7,0.4c-2.3,0-4.6-0.1-5.5-0.1c-0.8,0-3,0.1-4.5,0.1
				c-0.5,0-0.7-0.1-0.7-0.4c0-0.2,0.1-0.3,0.6-0.3c0.5,0,1-0.1,1.3-0.1c0.7-0.1,0.9-0.7,1-1.8c0.2-1.5,0.2-4.3,0.2-7.7V199.4z"/>
			<path class="st1" d="M202.1,189.6c0.1-0.6,0.3-0.9,0.6-0.9c0.3,0,0.5,0.2,1,1.1l9.7,19.7l9.6-19.9c0.3-0.6,0.5-0.9,0.8-0.9
				s0.5,0.4,0.6,1.1l3.2,21.7c0.3,2.2,0.7,3.3,1.7,3.6c1,0.3,1.7,0.4,2.2,0.4c0.3,0,0.6,0,0.6,0.2c0,0.3-0.4,0.4-0.9,0.4
				c-0.9,0-5.8-0.1-7.2-0.2c-0.8-0.1-1-0.2-1-0.4c0-0.2,0.1-0.3,0.4-0.4c0.2-0.1,0.3-0.5,0.2-1.5l-2.1-15.4h-0.1l-7.7,15.8
				c-0.8,1.7-1,2-1.3,2s-0.7-0.7-1.2-1.8c-0.9-1.6-3.6-7-4.1-8c-0.3-0.7-2.4-4.9-3.7-7.6h-0.1l-1.8,13.8c-0.1,0.6-0.1,1.1-0.1,1.7
				c0,0.7,0.5,1,1.1,1.1c0.6,0.1,1.1,0.2,1.5,0.2c0.3,0,0.5,0.1,0.5,0.2c0,0.3-0.3,0.4-0.9,0.4c-1.5,0-3.1-0.1-3.7-0.1
				c-0.7,0-2.4,0.1-3.5,0.1c-0.4,0-0.6-0.1-0.6-0.4c0-0.2,0.2-0.2,0.6-0.2c0.3,0,0.5,0,1.1-0.1c1-0.2,1.3-1.6,1.5-2.8L202.1,189.6z"
				/>
			<path class="st1" d="M242.5,202.5c0-6.1,4-13.9,14.6-13.9c8.8,0,14.3,5.1,14.3,13.3c0,8.1-5.7,14.5-14.7,14.5
				C246.7,216.4,242.5,208.8,242.5,202.5z M266.5,203.2c0-7.9-4.6-12.9-10.4-12.9c-4.1,0-8.7,2.3-8.7,11.1c0,7.4,4.1,13.2,10.9,13.2
				C260.8,214.7,266.5,213.5,266.5,203.2z"/>
			<path class="st1" d="M289.8,211.1c0.1,2.8,0.5,3.7,1.2,3.9c0.6,0.2,1.3,0.2,1.8,0.2c0.4,0,0.6,0.1,0.6,0.3c0,0.3-0.3,0.4-0.8,0.4
				c-2.3,0-3.7-0.1-4.4-0.1c-0.3,0-2,0.1-3.8,0.1c-0.5,0-0.8,0-0.8-0.4c0-0.2,0.2-0.3,0.6-0.3c0.5,0,1.1,0,1.6-0.2
				c0.9-0.3,1.1-1.3,1.1-4.4l0.3-20.9c0-0.7,0.1-1.2,0.5-1.2c0.4,0,0.7,0.5,1.3,1.1c0.4,0.5,5.8,6.1,11,11.3
				c2.4,2.4,7.2,7.5,7.8,8.1h0.2l-0.4-15.9c0-2.2-0.4-2.8-1.2-3.2c-0.5-0.2-1.4-0.2-1.9-0.2c-0.4,0-0.6-0.1-0.6-0.3
				c0-0.3,0.4-0.3,0.9-0.3c1.8,0,3.5,0.1,4.3,0.1c0.4,0,1.7-0.1,3.5-0.1c0.5,0,0.8,0,0.8,0.3c0,0.2-0.2,0.3-0.6,0.3
				c-0.4,0-0.6,0-1.1,0.1c-1,0.3-1.3,1-1.3,3l-0.4,22.4c0,0.8-0.1,1.1-0.5,1.1c-0.4,0-0.8-0.4-1.2-0.8c-2.2-2.1-6.8-6.8-10.5-10.4
				c-3.9-3.8-7.8-8.1-8.4-8.8h-0.1L289.8,211.1z"/>
			<path class="st1" d="M334.2,206.8c0-1.9-0.4-2.7-0.8-3.7c-0.2-0.6-5-8.4-6.2-10.2c-0.9-1.3-1.8-2.2-2.4-2.6
				c-0.5-0.2-1.1-0.5-1.5-0.5c-0.3,0-0.5-0.1-0.5-0.3c0-0.2,0.2-0.3,0.7-0.3c0.6,0,3.3,0.1,4.5,0.1c0.7,0,2.2-0.1,3.8-0.1
				c0.4,0,0.5,0.1,0.5,0.3c0,0.2-0.2,0.2-0.8,0.4c-0.3,0.1-0.5,0.4-0.5,0.6s0.2,0.7,0.4,1.2c0.5,1.1,5.5,9.6,6,10.6
				c0.4-0.9,4.8-8.6,5.3-9.7c0.4-0.8,0.5-1.4,0.5-1.8c0-0.4-0.1-0.7-0.7-0.9c-0.3-0.1-0.6-0.1-0.6-0.4c0-0.2,0.2-0.3,0.6-0.3
				c1.2,0,2.3,0.1,3.3,0.1c0.8,0,3.1-0.1,3.8-0.1c0.4,0,0.6,0.1,0.6,0.3c0,0.2-0.3,0.4-0.7,0.4c-0.4,0-1,0.1-1.6,0.4
				c-0.7,0.4-1.1,0.8-1.9,1.7c-1.2,1.4-6.1,9.7-6.8,11.3c-0.5,1.3-0.5,2.4-0.5,3.5v2.9c0,0.6,0,2.1,0.1,3.5c0.1,1,0.4,1.8,1.5,1.9
				c0.5,0.1,1.3,0.1,1.8,0.1c0.4,0,0.6,0.1,0.6,0.3c0,0.2-0.3,0.4-0.7,0.4c-2.2,0-4.5-0.1-5.4-0.1c-0.9,0-3.1,0.1-4.4,0.1
				c-0.5,0-0.8-0.1-0.8-0.4c0-0.2,0.2-0.3,0.6-0.3c0.5,0,0.9-0.1,1.2-0.1c0.7-0.1,1-0.9,1.1-1.9c0.1-1.5,0.1-3,0.1-3.5V206.8z"/>
			<path class="st0" d="M357.1,213.7c0-0.9,0.6-2.2,2.2-2.2c1.2,0,2.2,0.8,2.2,2.1s-0.8,2.3-2.2,2.3
				C357.8,215.8,357.1,214.7,357.1,213.7z"/>
			<path class="st0" d="M378.4,199.4c0-5.4,0-6.4-0.1-7.5c-0.1-1.2-0.4-1.8-1.5-2c-0.3-0.1-0.9-0.1-1.4-0.1c-0.4,0-0.6-0.1-0.6-0.3
				s0.2-0.3,0.8-0.3c1.9,0,4.1,0.1,5.1,0.1c1.5,0,3.5-0.1,5.1-0.1c4.4,0,6,1.5,6.6,2c0.8,0.7,1.8,2.3,1.8,4.2c0,5-3.7,8.6-8.7,8.6
				c-0.2,0-0.6,0-0.7,0c-0.2,0-0.4-0.1-0.4-0.3c0-0.3,0.2-0.4,1-0.4c2,0,4.7-2.2,4.7-5.8c0-1.2-0.1-3.5-2.1-5.3
				c-1.3-1.2-2.7-1.4-3.5-1.4c-0.5,0-1.1,0-1.4,0.1c-0.2,0.1-0.3,0.3-0.3,0.7v14.2c0,3.3,0,6.1,0.2,7.6c0.1,1,0.3,1.8,1.4,1.9
				c0.5,0.1,1.3,0.1,1.8,0.1c0.4,0,0.6,0.1,0.6,0.3c0,0.2-0.3,0.4-0.7,0.4c-2.3,0-4.6-0.1-5.5-0.1c-0.8,0-3,0.1-4.5,0.1
				c-0.5,0-0.7-0.1-0.7-0.4c0-0.2,0.1-0.3,0.6-0.3c0.5,0,1-0.1,1.3-0.1c0.7-0.1,0.9-0.9,1-1.9c0.2-1.5,0.2-4.3,0.2-7.5V199.4z"/>
			<path class="st0" d="M414.8,201h0.2c1.2-1.3,6.4-6.6,7.4-7.8c1-1.2,1.8-2.1,1.8-2.7c0-0.4-0.1-0.6-0.5-0.7
				c-0.3-0.1-0.5-0.1-0.5-0.4c0-0.2,0.2-0.3,0.6-0.3c0.7,0,2.7,0.1,3.6,0.1c1.1,0,3-0.1,4.1-0.1c0.4,0,0.6,0.1,0.6,0.3
				s-0.2,0.3-0.5,0.3c-0.5,0-1.4,0.1-2.1,0.4c-1.1,0.4-2.3,1.2-3.8,2.7c-1.1,1.1-6.4,6.4-7.7,7.7c1.3,1.7,8.2,9.1,9.6,10.5
				c1.6,1.5,3.2,3.1,5.1,3.8c1.1,0.4,1.8,0.5,2.2,0.5c0.2,0,0.5,0.1,0.5,0.3c0,0.2-0.2,0.4-0.9,0.4h-3.1c-1.1,0-1.7,0-2.4-0.1
				c-1.9-0.2-2.9-1-4.4-2.3c-1.6-1.4-8.5-9.6-9.3-10.6l-0.4-0.5h-0.2v3.2c0,3.3,0,6.1,0.1,7.6c0.1,1,0.4,1.8,1.3,1.9
				c0.5,0.1,1.3,0.1,1.7,0.1c0.3,0,0.5,0.1,0.5,0.3c0,0.2-0.3,0.4-0.7,0.4c-2,0-4.2-0.1-5.1-0.1c-0.8,0-3,0.1-4.5,0.1
				c-0.5,0-0.7-0.1-0.7-0.4c0-0.2,0.1-0.3,0.6-0.3c0.5,0,1-0.1,1.3-0.1c0.7-0.1,0.9-0.9,1-1.9c0.2-1.5,0.2-4.3,0.2-7.5v-6.2
				c0-5.4,0-6.4-0.1-7.5c-0.1-1.2-0.4-1.8-1.5-2c-0.3-0.1-0.9-0.1-1.4-0.1c-0.4,0-0.6-0.1-0.6-0.3s0.2-0.3,0.8-0.3
				c1.9,0,4.1,0.1,5,0.1c0.9,0,3.1-0.1,4.3-0.1c0.5,0,0.7,0.1,0.7,0.3s-0.2,0.3-0.5,0.3c-0.4,0-0.6,0-1,0.1c-1,0.2-1.2,0.8-1.3,2
				c-0.1,1.1-0.1,2.1-0.1,7.5V201z"/>
		</g>
	</g>
	<g>
		<g>
			<path class="st1" d="M219.3,30.6c-1.7,0-8-3.8-11.1-9.5c-0.6-2.8,0-4.1,0.4-4.6c0.1-0.1,0.1-0.1,0.1-0.2c0.2,0.1,0.5,0.4,0.9,0.8
				l0,0c0.3,1.2,0.8,2.4,1.6,3.5c0.8,1.2,1.8,2.5,3,3.6c1.3,1.2,2.5,2.1,3.3,2.5l0.1,0.1c0.6,0.4,1.1,0.7,1.6,0.7
				c0.1,1.1,0.2,2.1,0.4,3C219.5,30.6,219.4,30.6,219.3,30.6z"/>
		</g>
		<g>
			<path class="st1" d="M226.3,26.3c0-0.6,0-1.2,0.1-1.9c0.1-1,0.3-2,0.5-3c0.2-0.2,0.3-0.5,0.5-0.7c0.9-1.4,1.4-2.7,1.7-4.1
				c0.2-0.8,0.3-2.3-0.4-3.1c-0.5-0.6-1.4-0.7-1.9-0.7c-1.8,0-4.5,1.1-7.5,6.3c-0.6-1-1.2-1.9-1.8-2.7c-0.6-1.4-1.5-2.7-2.4-3.8
				c-1.1-1.3-2.1-2.1-3.1-2.6c2.5,0.1,5.1,1.5,6.8,3.8l0.5,0.8l0.5-0.8c1.7-2.4,4.3-3.8,6.9-3.8c1.7,0,3.1,0.6,4.1,1.8
				c1.1,1.3,1.4,3.2,0.9,5.4C231,21.2,228.4,24.4,226.3,26.3z"/>
		</g>
		<g>
			<path class="st1" d="M222.6,32.3c-0.1-0.1-0.2-0.2-0.2-0.2c-1.1-1.4-2-8.6,0.6-14.6c1.8-2.2,3.1-2.6,3.8-2.6c0.1,0,0.2,0,0.2,0
				c0,0.2,0,0.6-0.1,1.2l0,0c-0.7,1-1.3,2.1-1.8,3.4c-0.5,1.4-0.8,2.9-0.9,4.6c-0.2,1.8-0.1,3.2,0.1,4.1l0,0.1
				c0.1,0.7,0.1,1.2,0.5,1.7C223.9,30.9,223.2,31.6,222.6,32.3z"/>
		</g>
		<g>
			<path class="st1" d="M233.3,35.1c-1,0-2.1-0.1-3.2-0.2c0.5-0.4,1-0.8,1.5-1.1c0.9-0.6,1.8-1.1,2.6-1.5c0.3,0,0.6,0,0.9-0.1
				c1.6-0.2,3-0.6,4.3-1.2c0.7-0.4,2-1.2,2.2-2.2c0.2-0.8-0.3-1.6-0.6-1.9c-1.1-1.4-3.3-2.2-6.2-2.2c-1,0-2.2,0.1-3.4,0.3
				c0.4-1.1,0.8-2.1,1-3.1c0.7-1.4,1.2-2.8,1.5-4.3c0.3-1.6,0.3-2.9,0.1-4c1.5,2,2,4.9,1.2,7.7l-0.2,0.9l0.9,0c0.2,0,0.3,0,0.5,0
				c2.8,0,5.3,1.1,6.8,3c1.1,1.3,1.5,2.8,1.2,4.3c-0.3,1.6-1.6,3.1-3.6,4.1C238.7,34.6,236.2,35.1,233.3,35.1
				C233.3,35.1,233.3,35.1,233.3,35.1z"/>
		</g>
		<g>
			<path class="st1" d="M226.2,36.1c-1.1-0.2-2.1-0.3-3-0.3c0-0.1,0-0.2,0-0.3c0.4-1.7,5.5-7,11.8-8.7c2.9,0,4,0.9,4.4,1.4
				c0.1,0.1,0.1,0.1,0.1,0.2c-0.1,0.2-0.5,0.4-1,0.7l0,0c-1.2,0-2.5,0.3-3.8,0.7c-1.4,0.5-2.8,1.2-4.2,2.1c-1.5,1-2.6,2-3.2,2.6
				l-0.1,0.1C226.7,35.2,226.3,35.5,226.2,36.1z"/>
		</g>
		<g>
			<path class="st1" d="M236.8,51.4c-1,0-2.1-0.3-3.3-0.8c-3.8-1.7-6.3-5-7.7-7.4c0.6,0.1,1.2,0.3,1.8,0.5c1,0.3,1.9,0.7,2.8,1.1
				c0.2,0.2,0.4,0.4,0.6,0.6c1.1,1.1,2.4,2,3.6,2.6c0.8,0.4,1.5,0.5,2.1,0.5c0.4,0,0.7-0.1,1-0.2c0.7-0.4,1-1.2,1.1-1.7
				c0.4-1.7-0.1-4.6-4.5-8.7c1.1-0.3,2.1-0.7,3-1.2c1.5-0.3,3-0.8,4.3-1.5c1.5-0.8,2.5-1.6,3.2-2.5c-0.6,2.5-2.6,4.6-5.2,5.7
				l-0.9,0.4l0.6,0.7c2,2.2,2.8,5.1,2.2,7.6C241.1,49.9,239.2,51.4,236.8,51.4C236.8,51.4,236.8,51.4,236.8,51.4z"/>
		</g>
		<g>
			<path class="st1" d="M236.8,46.5c-0.2,0-0.6-0.1-1.2-0.3l0,0c-0.8-0.9-1.8-1.8-2.9-2.5c-1.2-0.8-2.7-1.4-4.2-1.9
				c-1.7-0.5-3.1-0.8-4-0.9l-0.1,0c-0.3,0-0.6-0.1-0.9-0.1c-0.3,0-0.6,0-0.8,0.1c-0.5-0.9-1.1-1.8-1.6-2.5c0.1-0.1,0.2-0.1,0.2-0.2
				c0.1-0.1,0.6-0.2,1.9-0.2c3.3,0,8.5,1.3,12.3,4.1c1.8,2.2,1.8,3.6,1.7,4.3C236.8,46.3,236.8,46.4,236.8,46.5z"/>
		</g>
		<g>
			<path class="st1" d="M220.8,60.6c-2.5,0-4.3-1.8-5.1-4.9c-1-4,0-8,1-10.6c0.2,0.5,0.5,1.1,0.8,1.7c0.4,1,0.7,1.9,0.8,2.9
				c0,0.3-0.1,0.6-0.1,0.9c-0.2,1.6-0.1,3.1,0.2,4.4c0.2,0.8,0.7,2.2,1.7,2.6c0.2,0.1,0.5,0.2,0.8,0.2c0.5,0,1-0.2,1.3-0.3
				c1.6-0.8,3.5-3,4-8.9c1,0.7,1.9,1.2,2.8,1.7c1.2,1,2.5,1.8,3.8,2.4c1.4,0.6,2.7,0.9,3.9,1c-1,0.4-2.1,0.7-3.2,0.7
				c-1.5,0-3.1-0.4-4.5-1.2l-0.8-0.4l-0.2,0.9c-0.5,2.9-2.2,5.3-4.6,6.5C222.5,60.4,221.6,60.6,220.8,60.6L220.8,60.6z"/>
		</g>
		<g>
			<path class="st1" d="M220.9,55.6c-0.1-0.2-0.3-0.5-0.5-1.1l0,0c0.2-1.2,0.3-2.5,0.1-3.8c-0.2-1.5-0.6-3-1.1-4.5
				c-0.6-1.7-1.4-2.9-1.8-3.7l-0.1-0.1c-0.4-0.6-0.7-1.1-1.1-1.3c0.4-1,0.7-2,1-2.9c0.1,0,0.2,0.1,0.3,0.1c1.6,0.8,5.6,6.9,5.8,13.4
				c-0.7,2.8-1.7,3.7-2.3,4C221.1,55.6,221,55.6,220.9,55.6z"/>
		</g>
		<g>
			<path class="st1" d="M215.3,59.9c-2.3-1.2-3.9-3.5-4.4-6.4l-0.2-0.9l-0.8,0.4c-1.4,0.8-3,1.2-4.5,1.2c0,0,0,0,0,0
				c-1.2,0-2.4-0.3-3.4-0.7c-1.5-0.7-2.6-1.9-2.9-3.3c-0.4-1.6,0.1-3.5,1.5-5.3c2.5-3.3,6.3-5,8.9-5.9c-0.2,0.5-0.5,1.1-0.9,1.7
				c-0.5,0.9-1.1,1.7-1.7,2.5c-0.3,0.1-0.5,0.3-0.8,0.4c-1.4,0.9-2.5,1.9-3.3,3c-0.5,0.7-1.3,1.9-1,2.9c0.2,0.8,1,1.3,1.4,1.5
				c0.6,0.3,1.4,0.5,2.2,0.5c2,0,4.5-1,7.3-2.9c0.1,1.2,0.2,2.3,0.4,3.2c0,1.6,0.1,3.1,0.5,4.5C214,57.8,214.6,59,215.3,59.9z"/>
		</g>
		<g>
			<path class="st1" d="M205.3,49.3c-0.5,0-0.9-0.1-1.2-0.2c-0.1,0-0.1-0.1-0.2-0.1c0.1-0.2,0.2-0.6,0.6-1.1l0,0
				c1.1-0.6,2.1-1.3,3.1-2.3c1-1,2-2.3,2.8-3.7c0.9-1.5,1.5-2.9,1.7-3.8l0-0.1c0.2-0.7,0.4-1.2,0.3-1.7c1-0.3,2-0.7,2.8-1
				c0.1,0.1,0.1,0.2,0.1,0.3c0.4,1.7-1.9,8.7-6.8,12.9C207.4,49,206.2,49.3,205.3,49.3C205.3,49.3,205.3,49.3,205.3,49.3z"/>
		</g>
		<g>
			<path class="st1" d="M197,47.2c-0.5-2.5,0.3-5.3,2.2-7.5l0.6-0.7l-0.9-0.4c-2.7-1.2-4.7-3.4-5.3-5.9c-0.4-1.6-0.1-3.2,0.8-4.3
				c1-1.3,2.8-2.1,5.1-2.1c0.1,0,0.3,0,0.4,0c4,0,7.5,1.8,9.8,3.3c-0.5,0.1-1.2,0.3-1.9,0.4c-0.9,0.1-1.7,0.2-2.5,0.2
				c-0.2,0-0.3,0-0.5,0c-0.3-0.1-0.5-0.2-0.8-0.3c-1.4-0.5-2.8-0.7-4.1-0.7c-0.1,0-0.2,0-0.3,0c-0.8,0-2.3,0.2-2.9,1
				c-0.5,0.7-0.4,1.5-0.3,2c0.4,1.7,2.1,4.1,7.8,5.9c-0.9,0.8-1.6,1.6-2.2,2.4c-1.3,1-2.3,2-3.2,3.2C197.8,44.9,197.3,46.1,197,47.2
				z"/>
		</g>
		<g>
			<path class="st1" d="M205.4,35.1c-1.2,0-2.4-0.1-3.5-0.3c-2.6-1.3-3.2-2.5-3.3-3.1c0-0.1,0-0.2,0-0.2c0.2-0.1,0.6-0.2,1.2-0.2
				l0,0c1.1,0.5,2.4,0.8,3.7,1c0.6,0.1,1.2,0.1,1.9,0.1c0.9,0,1.8-0.1,2.8-0.2c1.8-0.2,3.2-0.7,4-1l0.1,0c0.7-0.2,1.2-0.4,1.5-0.8
				c0.9,0.6,1.8,1.2,2.6,1.6c-0.1,0.1-0.1,0.2-0.2,0.2C215.4,33.2,210.6,35.1,205.4,35.1C205.4,35.1,205.4,35.1,205.4,35.1z"/>
		</g>
		<g>
			<path class="st1" d="M195.6,25c1.5-1.8,4-2.9,6.7-2.9c0.2,0,0.3,0,0.5,0l0.9,0l-0.2-0.9c-0.8-2.9-0.3-5.8,1.3-7.8
				c1.1-1.3,2.5-2.1,4-2.1c1.6,0,3.3,0.9,4.8,2.6c2.7,3.1,3.5,7.2,3.7,10c-0.4-0.3-0.9-0.8-1.4-1.2c-0.8-0.7-1.4-1.5-2-2.2
				c-0.1-0.3-0.2-0.6-0.3-0.8c-0.5-1.5-1.3-2.8-2.1-3.9c-0.5-0.6-1.6-1.6-2.6-1.6c-0.8,0-1.5,0.7-1.8,1c-1.1,1.4-1.9,4.2,0.3,9.8
				c-1.2-0.2-2.3-0.3-3.2-0.3c-1.4-0.3-2.7-0.5-4-0.5c-0.1,0-0.3,0-0.4,0C197.9,24.2,196.6,24.5,195.6,25z"/>
		</g>
	</g>
</g>
</svg>
