<?xml version="1.0" encoding="utf-8"?>
<!-- Generator: Adobe Illustrator 27.4.1, SVG Export Plug-In . SVG Version: 6.00 Build 0)  -->
<svg version="1.1" id="Layer_1" xmlns="http://www.w3.org/2000/svg" xmlns:xlink="http://www.w3.org/1999/xlink" x="0px" y="0px"
	 viewBox="0 0 190 48" style="enable-background:new 0 0 190 48;" xml:space="preserve">
<style type="text/css">
	.st0{fill:url(#SVGID_1_);}
	.st1{fill:url(#SVGID_00000080180583779150475770000010779297536736415672_);}
	.st2{fill:url(#SVGID_00000126303127833244370890000004876988677884447129_);}
	.st3{fill:url(#SVGID_00000179630914407656963490000011280221983797890443_);}
	.st4{fill:url(#SVGID_00000010310141983671946220000015484549589837156504_);}
	.st5{fill:url(#SVGID_00000139262449318120930980000013778313703172233865_);}
	.st6{fill:url(#SVGID_00000001658079869591751290000010969041384891070904_);}
	.st7{fill:url(#SVGID_00000004519661162959332690000016074548916880270229_);}
	.st8{fill:url(#SVGID_00000017490706379936751570000002746813546240556203_);}
	.st9{fill:#FFFFFF;}
</style>
<g>
	<g>
		<linearGradient id="SVGID_1_" gradientUnits="userSpaceOnUse" x1="141.9951" y1="32.9211" x2="192.5422" y2="32.9211">
			<stop  offset="0" style="stop-color:#482415"/>
			<stop  offset="0.1423" style="stop-color:#AB5D0A"/>
			<stop  offset="0.3557" style="stop-color:#B97311"/>
			<stop  offset="0.4308" style="stop-color:#C57A16"/>
			<stop  offset="0.7393" style="stop-color:#FBB42D"/>
			<stop  offset="0.7589" style="stop-color:#F7B02A"/>
			<stop  offset="0.8419" style="stop-color:#C17711"/>
			<stop  offset="0.9308" style="stop-color:#FFBB33"/>
			<stop  offset="0.9626" style="stop-color:#9D5100"/>
			<stop  offset="1" style="stop-color:#482415"/>
		</linearGradient>
		<polygon class="st0" points="187.5,45.9 145.44,45.9 145.44,19.94 187.5,19.94 172.41,32.69 		"/>
		
			<linearGradient id="SVGID_00000078742562947094285130000001084867430445780363_" gradientUnits="userSpaceOnUse" x1="146.7468" y1="32.9211" x2="178.2744" y2="32.9211">
			<stop  offset="0" style="stop-color:#DEA200"/>
			<stop  offset="1" style="stop-color:#F5CA1F"/>
		</linearGradient>
		<polygon style="fill:url(#SVGID_00000078742562947094285130000001084867430445780363_);" points="187.5,45.9 145.44,45.9 
			145.44,19.94 187.5,19.94 172.41,32.69 		"/>
		
			<linearGradient id="SVGID_00000034083378948976232670000012928852572757990805_" gradientUnits="userSpaceOnUse" x1="146.0481" y1="27.5501" x2="165.9161" y2="27.5501">
			<stop  offset="0" style="stop-color:#482415"/>
			<stop  offset="0.4976" style="stop-color:#AB5D0A"/>
			<stop  offset="0.8212" style="stop-color:#482415"/>
		</linearGradient>
		<polygon style="fill:url(#SVGID_00000034083378948976232670000012928852572757990805_);" points="145.44,20.2 145.44,45.9 
			165.84,34.9 165.84,9.2 		"/>
		
			<linearGradient id="SVGID_00000116199314749735201240000004248616350214535073_" gradientUnits="userSpaceOnUse" x1="634.5733" y1="-268.7438" x2="671.7991" y2="-268.7438" gradientTransform="matrix(0.5481 0 0 0.5481 -202.373 174.8486)">
			<stop  offset="0" style="stop-color:#F5CA1F"/>
			<stop  offset="1" style="stop-color:#DEA200"/>
		</linearGradient>
		<polygon style="fill:url(#SVGID_00000116199314749735201240000004248616350214535073_);" points="145.44,20.2 145.44,45.9 
			165.84,34.9 165.84,9.2 		"/>
		
			<linearGradient id="SVGID_00000060729870946611143930000005918630663466781593_" gradientUnits="userSpaceOnUse" x1="188.4711" y1="32.9211" x2="239.0182" y2="32.9211" gradientTransform="matrix(-1 0 0 1 236.476 0)">
			<stop  offset="0" style="stop-color:#482415"/>
			<stop  offset="0.2677" style="stop-color:#AB5D0A"/>
			<stop  offset="0.429" style="stop-color:#B97311"/>
			<stop  offset="0.562" style="stop-color:#C57A16"/>
			<stop  offset="0.7837" style="stop-color:#FBB42D"/>
			<stop  offset="0.8402" style="stop-color:#F7B02A"/>
			<stop  offset="0.9308" style="stop-color:#FFBB33"/>
			<stop  offset="0.9626" style="stop-color:#9D5100"/>
			<stop  offset="1" style="stop-color:#482415"/>
		</linearGradient>
		<polygon style="fill:url(#SVGID_00000060729870946611143930000005918630663466781593_);" points="2.5,45.9 44.56,45.9 
			44.56,19.94 2.5,19.94 17.59,32.69 		"/>
		
			<linearGradient id="SVGID_00000104680750517262610030000015420234979611366824_" gradientUnits="userSpaceOnUse" x1="48.8681" y1="32.9211" x2="9.961" y2="32.9211">
			<stop  offset="0" style="stop-color:#DEA200"/>
			<stop  offset="1" style="stop-color:#F5CA1F"/>
		</linearGradient>
		<polygon style="fill:url(#SVGID_00000104680750517262610030000015420234979611366824_);" points="2.5,45.9 44.56,45.9 
			44.56,19.94 2.5,19.94 17.59,32.69 		"/>
		
			<linearGradient id="SVGID_00000075846279313103339060000017837234282381481090_" gradientUnits="userSpaceOnUse" x1="192.5241" y1="27.5501" x2="212.3921" y2="27.5501" gradientTransform="matrix(-1 0 0 1 236.476 0)">
			<stop  offset="0" style="stop-color:#482415"/>
			<stop  offset="0.4976" style="stop-color:#AB5D0A"/>
			<stop  offset="0.8212" style="stop-color:#482415"/>
		</linearGradient>
		<polygon style="fill:url(#SVGID_00000075846279313103339060000017837234282381481090_);" points="44.56,20.2 44.56,45.9 
			24.16,34.9 24.16,9.2 		"/>
		
			<linearGradient id="SVGID_00000054962136153122187840000007009781918120134275_" gradientUnits="userSpaceOnUse" x1="77.2811" y1="47.8804" x2="64.5359" y2="41.8432">
			<stop  offset="0" style="stop-color:#F5CA1F"/>
			<stop  offset="1" style="stop-color:#DEA200"/>
		</linearGradient>
		<polygon style="fill:url(#SVGID_00000054962136153122187840000007009781918120134275_);" points="44.56,20.2 44.56,45.9 
			24.16,34.9 24.16,9.2 		"/>
		
			<linearGradient id="SVGID_00000124873622603561737460000003364822873025320324_" gradientUnits="userSpaceOnUse" x1="19.6314" y1="14.3858" x2="158.105" y2="25.8385">
			<stop  offset="0" style="stop-color:#F5CA1F"/>
			<stop  offset="1" style="stop-color:#DEA200"/>
		</linearGradient>
		<path style="fill:url(#SVGID_00000124873622603561737460000003364822873025320324_);" d="M165.84,34.9c0,0-14.74-6.11-71.18-6.11
			c-56.22,0-70.64,6.11-70.64,6.11V9.2c0,0,14.64-7.1,70.42-7.1c52.94,0,71.4,7.1,71.4,7.1V34.9z"/>
	</g>
	<g>
		<path class="st9" d="M64.01,20.33l-4.97,0.34l-0.64,2.4l-3.39,0.23l3.92-13.64l3.75-0.25L68.4,22.4l-3.43,0.23L64.01,20.33z
			 M63.01,17.88l-1.98-4.76l-1.3,4.98L63.01,17.88z"/>
		<path class="st9" d="M79.5,16.32c0.49,0.58,0.75,1.26,0.78,2.04c0.04,1.11-0.32,2.01-1.07,2.69s-1.83,1.04-3.22,1.09l-6.21,0.22
			L69.29,9.03l6-0.21c1.35-0.05,2.43,0.23,3.21,0.82c0.79,0.59,1.2,1.42,1.24,2.49c0.03,0.79-0.16,1.44-0.55,1.98
			s-0.93,0.91-1.6,1.14C78.37,15.38,79.01,15.74,79.5,16.32z M72.73,14.31l2.13-0.08c0.53-0.02,0.94-0.15,1.21-0.39
			c0.28-0.24,0.41-0.59,0.39-1.05c-0.02-0.46-0.17-0.8-0.46-1.03s-0.71-0.34-1.24-0.32l-2.13,0.07L72.73,14.31z M76.56,19.13
			c0.29-0.26,0.42-0.62,0.41-1.09s-0.18-0.83-0.5-1.09s-0.75-0.37-1.3-0.35l-2.36,0.08l0.1,2.94l2.39-0.08
			C75.86,19.52,76.27,19.38,76.56,19.13z"/>
		<path class="st9" d="M89.03,21.88l-2.83-5l-0.78,0.01l0.06,5.04l-3.25,0.04L82.07,8.61l5.45-0.06c1.05-0.01,1.95,0.16,2.7,0.52
			c0.75,0.36,1.31,0.86,1.68,1.49c0.38,0.64,0.57,1.35,0.58,2.13c0.01,0.89-0.23,1.68-0.72,2.38c-0.49,0.7-1.22,1.21-2.2,1.51
			l3.14,5.25L89.03,21.88z M85.39,14.58l2.01-0.02c0.6-0.01,1.04-0.16,1.33-0.45c0.29-0.29,0.44-0.71,0.43-1.24
			c-0.01-0.51-0.16-0.9-0.46-1.19c-0.3-0.29-0.75-0.43-1.35-0.42l-2.01,0.02L85.39,14.58z"/>
		<path class="st9" d="M97.4,21.11c-1.04-0.59-1.86-1.42-2.46-2.47c-0.6-1.05-0.9-2.23-0.88-3.54c0.01-1.31,0.33-2.47,0.96-3.51
			c0.62-1.03,1.46-1.83,2.52-2.41c1.05-0.57,2.21-0.85,3.46-0.84c1.25,0.01,2.4,0.32,3.44,0.91c1.04,0.59,1.85,1.41,2.44,2.46
			c0.59,1.05,0.88,2.22,0.86,3.53c-0.01,1.31-0.33,2.48-0.95,3.52c-0.62,1.04-1.45,1.84-2.5,2.42c-1.04,0.57-2.19,0.85-3.45,0.84
			C99.58,22.01,98.44,21.7,97.4,21.11z M103.44,18.02c0.65-0.7,0.98-1.64,0.99-2.8c0.01-1.18-0.3-2.12-0.93-2.83
			c-0.63-0.71-1.48-1.07-2.54-1.08c-1.08-0.01-1.94,0.33-2.59,1.02c-0.65,0.69-0.98,1.63-0.99,2.82c-0.01,1.18,0.3,2.12,0.93,2.83
			c0.63,0.71,1.49,1.07,2.56,1.08C101.94,19.07,102.79,18.72,103.44,18.02z"/>
		<path class="st9" d="M117.78,19.99l-4.98-0.2l-0.89,2.32l-3.4-0.14l5.36-13.14l3.76,0.15l4.29,13.52l-3.44-0.14L117.78,19.99z
			 M117.05,17.45l-1.46-4.95l-1.83,4.81L117.05,17.45z"/>
		<path class="st9" d="M132.87,10.78c1.01,0.64,1.76,1.48,2.26,2.52c0.5,1.05,0.7,2.23,0.6,3.54c-0.1,1.3-0.47,2.44-1.12,3.4
			c-0.65,0.97-1.52,1.69-2.62,2.17c-1.1,0.48-2.34,0.66-3.73,0.56l-4.98-0.37l1-13.3l4.99,0.37
			C130.66,9.78,131.87,10.15,132.87,10.78z M131.2,19.36c0.73-0.62,1.14-1.54,1.24-2.77c0.09-1.23-0.18-2.21-0.81-2.94
			c-0.63-0.73-1.56-1.15-2.79-1.24l-1.54-0.12l-0.58,7.73l1.54,0.12C129.49,20.25,130.46,19.98,131.2,19.36z"/>
	</g>
</g>
</svg>
