<?xml version="1.0" encoding="utf-8"?>
<!-- Generator: Adobe Illustrator 27.4.1, SVG Export Plug-In . SVG Version: 6.00 Build 0)  -->
<svg version="1.1" id="Layer_1" xmlns="http://www.w3.org/2000/svg" xmlns:xlink="http://www.w3.org/1999/xlink" x="0px" y="0px"
	 viewBox="0 0 190 48" style="enable-background:new 0 0 190 48;" xml:space="preserve">
<style type="text/css">
	.st0{fill:url(#SVGID_1_);}
	.st1{fill:url(#SVGID_00000167376885810249433710000007373853737612473733_);}
	.st2{fill:url(#SVGID_00000029746702533093484510000016805998292523848605_);}
	.st3{fill:url(#SVGID_00000125561829855025294980000007048725420300112515_);}
	.st4{fill:url(#SVGID_00000002350969805178859170000016139920488926675597_);}
	.st5{fill:url(#SVGID_00000085212228033312073490000009875514246408090259_);}
	.st6{fill:url(#SVGID_00000109030733847144129960000018367999250018798255_);}
	.st7{fill:url(#SVGID_00000085221842160478110930000005065873678134421683_);}
	.st8{fill:url(#SVGID_00000038372458956754512720000002602146430889728952_);}
	.st9{fill:#FFFFFF;}
</style>
<g>
	<g>
		<linearGradient id="SVGID_1_" gradientUnits="userSpaceOnUse" x1="141.0539" y1="32.9211" x2="191.601" y2="32.9211">
			<stop  offset="0" style="stop-color:#482415"/>
			<stop  offset="0.1423" style="stop-color:#AB5D0A"/>
			<stop  offset="0.3557" style="stop-color:#B97311"/>
			<stop  offset="0.4308" style="stop-color:#C57A16"/>
			<stop  offset="0.7393" style="stop-color:#FBB42D"/>
			<stop  offset="0.7589" style="stop-color:#F7B02A"/>
			<stop  offset="0.8419" style="stop-color:#C17711"/>
			<stop  offset="0.9308" style="stop-color:#FFBB33"/>
			<stop  offset="0.9626" style="stop-color:#9D5100"/>
			<stop  offset="1" style="stop-color:#482415"/>
		</linearGradient>
		<polygon class="st0" points="186.56,45.9 144.5,45.9 144.5,19.94 186.56,19.94 171.47,32.69 		"/>
		
			<linearGradient id="SVGID_00000008829320531584861980000007453358145589099669_" gradientUnits="userSpaceOnUse" x1="145.8056" y1="32.9211" x2="177.3333" y2="32.9211">
			<stop  offset="0" style="stop-color:#DEA200"/>
			<stop  offset="1" style="stop-color:#F5CA1F"/>
		</linearGradient>
		<polygon style="fill:url(#SVGID_00000008829320531584861980000007453358145589099669_);" points="186.56,45.9 144.5,45.9 
			144.5,19.94 186.56,19.94 171.47,32.69 		"/>
		
			<linearGradient id="SVGID_00000035514359387366115970000018392963076176412577_" gradientUnits="userSpaceOnUse" x1="145.1069" y1="27.5501" x2="164.9749" y2="27.5501">
			<stop  offset="0" style="stop-color:#482415"/>
			<stop  offset="0.4976" style="stop-color:#AB5D0A"/>
			<stop  offset="0.8212" style="stop-color:#482415"/>
		</linearGradient>
		<polygon style="fill:url(#SVGID_00000035514359387366115970000018392963076176412577_);" points="144.5,20.2 144.5,45.9 
			164.9,34.9 164.9,9.2 		"/>
		
			<linearGradient id="SVGID_00000096033483465643376750000005808096101402483897_" gradientUnits="userSpaceOnUse" x1="632.8561" y1="-268.7438" x2="670.082" y2="-268.7438" gradientTransform="matrix(0.5481 0 0 0.5481 -202.373 174.8486)">
			<stop  offset="0" style="stop-color:#F5CA1F"/>
			<stop  offset="1" style="stop-color:#DEA200"/>
		</linearGradient>
		<polygon style="fill:url(#SVGID_00000096033483465643376750000005808096101402483897_);" points="144.5,20.2 144.5,45.9 
			164.9,34.9 164.9,9.2 		"/>
		
			<linearGradient id="SVGID_00000016756584563719000900000007972313176133686948_" gradientUnits="userSpaceOnUse" x1="189.4122" y1="32.9211" x2="239.9594" y2="32.9211" gradientTransform="matrix(-1 0 0 1 236.476 0)">
			<stop  offset="0" style="stop-color:#482415"/>
			<stop  offset="0.2677" style="stop-color:#AB5D0A"/>
			<stop  offset="0.429" style="stop-color:#B97311"/>
			<stop  offset="0.562" style="stop-color:#C57A16"/>
			<stop  offset="0.7837" style="stop-color:#FBB42D"/>
			<stop  offset="0.8402" style="stop-color:#F7B02A"/>
			<stop  offset="0.9308" style="stop-color:#FFBB33"/>
			<stop  offset="0.9626" style="stop-color:#9D5100"/>
			<stop  offset="1" style="stop-color:#482415"/>
		</linearGradient>
		<polygon style="fill:url(#SVGID_00000016756584563719000900000007972313176133686948_);" points="1.56,45.9 43.62,45.9 
			43.62,19.94 1.56,19.94 16.65,32.69 		"/>
		
			<linearGradient id="SVGID_00000026127215654560145130000012897564049619860367_" gradientUnits="userSpaceOnUse" x1="47.927" y1="32.9211" x2="9.0199" y2="32.9211">
			<stop  offset="0" style="stop-color:#DEA200"/>
			<stop  offset="1" style="stop-color:#F5CA1F"/>
		</linearGradient>
		<polygon style="fill:url(#SVGID_00000026127215654560145130000012897564049619860367_);" points="1.56,45.9 43.62,45.9 
			43.62,19.94 1.56,19.94 16.65,32.69 		"/>
		
			<linearGradient id="SVGID_00000000938277908402597510000016718911942523382959_" gradientUnits="userSpaceOnUse" x1="193.4652" y1="27.5501" x2="213.3333" y2="27.5501" gradientTransform="matrix(-1 0 0 1 236.476 0)">
			<stop  offset="0" style="stop-color:#482415"/>
			<stop  offset="0.4976" style="stop-color:#AB5D0A"/>
			<stop  offset="0.8212" style="stop-color:#482415"/>
		</linearGradient>
		<polygon style="fill:url(#SVGID_00000000938277908402597510000016718911942523382959_);" points="43.62,20.2 43.62,45.9 
			23.22,34.9 23.22,9.2 		"/>
		
			<linearGradient id="SVGID_00000084493133892856602610000009695063223247534504_" gradientUnits="userSpaceOnUse" x1="76.34" y1="47.8804" x2="63.5947" y2="41.8432">
			<stop  offset="0" style="stop-color:#F5CA1F"/>
			<stop  offset="1" style="stop-color:#DEA200"/>
		</linearGradient>
		<polygon style="fill:url(#SVGID_00000084493133892856602610000009695063223247534504_);" points="43.62,20.2 43.62,45.9 
			23.22,34.9 23.22,9.2 		"/>
		
			<linearGradient id="SVGID_00000011000641721242505580000005064597606571271822_" gradientUnits="userSpaceOnUse" x1="18.6902" y1="14.3858" x2="157.1638" y2="25.8385">
			<stop  offset="0" style="stop-color:#F5CA1F"/>
			<stop  offset="1" style="stop-color:#DEA200"/>
		</linearGradient>
		<path style="fill:url(#SVGID_00000011000641721242505580000005064597606571271822_);" d="M164.9,34.9c0,0-14.74-6.11-71.18-6.11
			c-56.22,0-70.64,6.11-70.64,6.11V9.2c0,0,14.64-7.1,70.42-7.1c52.94,0,71.4,7.1,71.4,7.1V34.9z"/>
	</g>
	<g>
		<path class="st9" d="M60.68,15.87c-0.3,0.67-0.8,1.23-1.5,1.68c-0.7,0.45-1.59,0.72-2.68,0.81l-2.01,0.16l0.39,4.77l-3.24,0.26
			l-1.07-13.3l5.25-0.42c1.06-0.09,1.97,0.02,2.73,0.33c0.76,0.31,1.35,0.77,1.77,1.38c0.42,0.61,0.66,1.34,0.73,2.17
			C61.1,14.49,60.98,15.21,60.68,15.87z M57.39,15.25c0.28-0.31,0.4-0.74,0.36-1.27s-0.23-0.93-0.55-1.19
			c-0.33-0.27-0.8-0.37-1.42-0.32l-1.76,0.14l0.27,3.33l1.76-0.14C56.66,15.75,57.11,15.57,57.39,15.25z"/>
		<path class="st9" d="M70.15,22.33l-3.01-4.9l-0.78,0.04l0.24,5.03l-3.25,0.15L62.72,9.32l5.45-0.26c1.05-0.05,1.95,0.09,2.71,0.42
			s1.34,0.81,1.73,1.43c0.4,0.62,0.61,1.33,0.65,2.11c0.04,0.89-0.17,1.69-0.64,2.41c-0.47,0.72-1.18,1.25-2.14,1.59l3.33,5.13
			L70.15,22.33z M66.25,15.17l2.01-0.1c0.59-0.03,1.03-0.19,1.32-0.5c0.28-0.31,0.41-0.72,0.39-1.25c-0.02-0.51-0.19-0.9-0.5-1.17
			c-0.31-0.28-0.76-0.4-1.36-0.37l-2.01,0.1L66.25,15.17z"/>
		<path class="st9" d="M78.66,11.3l0.06,2.7l4.35-0.1l0.06,2.51l-4.35,0.1l0.07,2.93l4.92-0.12l0.06,2.6l-8.17,0.19L75.35,8.77
			l8.17-0.19l0.06,2.6L78.66,11.3z"/>
		<path class="st9" d="M100.94,8.49l0.03,13.34l-3.25,0.01l-0.02-8l-2.96,8.01l-2.62,0.01l-3.02-8.01l0.02,8.02l-3.25,0.01
			L85.83,8.53l3.84-0.01l3.77,9.23l3.68-9.25L100.94,8.49z"/>
		<path class="st9" d="M106.77,8.66L106.5,22l-3.25-0.07l0.27-13.34L106.77,8.66z"/>
		<path class="st9" d="M112.51,8.82l-0.32,7.98c-0.03,0.8,0.14,1.42,0.51,1.87c0.38,0.45,0.94,0.68,1.7,0.71s1.35-0.16,1.77-0.58
			c0.42-0.41,0.65-1.02,0.68-1.82l0.32-7.98l3.25,0.13l-0.32,7.96c-0.05,1.19-0.34,2.19-0.88,2.99c-0.54,0.8-1.25,1.4-2.12,1.78
			s-1.83,0.55-2.88,0.51s-1.98-0.29-2.79-0.73c-0.81-0.44-1.44-1.09-1.89-1.94c-0.45-0.85-0.65-1.87-0.6-3.06l0.32-7.96L112.51,8.82
			z"/>
		<path class="st9" d="M138.17,10.45l-1.06,13.3l-3.24-0.26l0.63-7.98l-3.61,7.74l-2.61-0.21l-2.36-8.23l-0.64,8l-3.24-0.26
			l1.06-13.3l3.83,0.3l3,9.51l4.43-8.91L138.17,10.45z"/>
	</g>
</g>
</svg>
