<?xml version="1.0" encoding="utf-8"?>
<!-- Generator: Adobe Illustrator 25.4.1, SVG Export Plug-In . SVG Version: 6.00 Build 0)  -->
<svg version="1.1" id="Layer_1" xmlns="http://www.w3.org/2000/svg" xmlns:xlink="http://www.w3.org/1999/xlink" x="0px" y="0px"
	 viewBox="0 0 61.92 48.36" style="enable-background:new 0 0 61.92 48.36;" xml:space="preserve">
<style type="text/css">
	.st0{fill:#FFFFFF;}
	.st1{fill:#040F2E;}
	.st2{fill:#11100F;}
	.st3{fill:#10100F;}
	.st4{fill:#0E0E0D;}
	.st5{fill:#0F0F0E;}
	.st6{fill:#7D6F6F;}
	.st7{fill:#657272;}
	.st8{fill:#814994;}
	.st9{fill:#753884;}
	.st10{fill:#743984;}
	.st11{fill:#773A85;}
	.st12{fill:#CDACC8;}
	.st13{fill:#6D3482;}
	.st14{fill:#723784;}
	.st15{fill:none;stroke:#79498F;stroke-width:0;stroke-linecap:round;stroke-linejoin:round;}
</style>
<g>
	<g>
		<polygon class="st8" points="26.54,4.2 28.72,6.89 30.29,4.25 29.26,3.16 25.93,3.24 		"/>
	</g>
	<g>
		<path class="st1" d="M30.96,16.15v0.51c-0.36,0.05-0.72-0.18-1.43-0.73c-0.6-0.33-1.2-0.66-1.79-1c-2.67-1.54-5.46-2.79-8.51-3.37
			c-4.81-0.91-8.73,0.89-11.03,5.2c-3,5.63-3.05,11.12,0.94,16.39c1.68,2.21,3.54,4.23,5.62,6.06c3.93,3.44,8.24,6.33,12.81,8.87
			c0,0,0,0,0,0c-0.01,0.03-0.02,0.05-0.03,0.07c-0.02,0.09,0.02,0.16,0.12,0.21c-1.1,0.03-2.08-0.43-3.09-0.75
			c-5.42-1.7-10.56-3.98-15.17-7.35c-2.92-2.14-5.43-4.66-7.21-7.85c-4.81-8.67-1.36-20.58,7.24-24.95
			c8.11-4.12,17.35-0.7,20.79,7.7c0.09,0.23,0.11,0.49,0.16,0.73v0h0C30.59,15.97,30.75,16.39,30.96,16.15"/>
		<path class="st1" d="M30.96,16.15v0.51c0.36,0.05,0.72-0.18,1.43-0.73c0.6-0.33,1.2-0.66,1.79-1c2.67-1.54,5.46-2.79,8.51-3.37
			c4.81-0.91,8.73,0.89,11.03,5.2c3,5.63,3.05,11.12-0.94,16.39c-1.67,2.21-3.54,4.23-5.62,6.06c-3.93,3.44-8.24,6.33-12.81,8.87
			c0,0,0,0,0,0c0.01,0.03,0.02,0.05,0.03,0.07c0.02,0.09-0.02,0.16-0.12,0.21c1.1,0.03,2.08-0.43,3.09-0.75
			c5.42-1.7,10.56-3.98,15.17-7.35c2.92-2.14,5.43-4.66,7.21-7.85c4.81-8.67,1.36-20.58-7.24-24.95c-8.11-4.12-17.35-0.7-20.79,7.7
			c-0.09,0.23-0.11,0.49-0.16,0.73v0h0C31.33,15.97,31.17,16.39,30.96,16.15"/>
	</g>
	<g>
		<path class="st8" d="M32.11,1.55C32.11,1.55,32.11,1.55,32.11,1.55c0,0,0.03,0.01,0.03,0.01c0,0,0,0,0,0c0,0,0,0,0,0
			c0.01,0.91,1.03,1.4,1,2.32c-0.3,0.51-0.78,0.32-1.18,0.35c-0.43,0.03-0.86,0.01-1.34,0.01c0.01-1.14,1.17-1.67,1.18-2.69
			c-0.13-0.11-0.26-0.21-0.39-0.32v0c-0.8,0.71-1.76,0.23-2.64,0.37c-0.02,0.43,0.22,0.76,0.38,1.13c0.04,0.03,0.07,0.07,0.11,0.11
			c0.09,0.09,0.18,0.18,0.26,0.27c-0.09-0.09-0.18-0.18-0.26-0.27c0.08,0.09,0.16,0.19,0.26,0.27c0.17,0.39,0.42,0.76,0.35,1.22l0,0
			c0,0.11,0.02,0.21,0.06,0.31v0c0.2,0.14,0.45,0.24,0.58,0.43c0.28,0.39,1.1,0.65,0.54,1.29c-0.37,0.43-1.38,0.06-1.91-0.6
			c-0.46,0.26-0.43,0.71-0.42,1.14c0,0,0,0,0,0c0,0,0,0,0,0c0.47,0.49,0.79,1.13,1.53,1.54c1.8-2.04,3.47-4.2,5.12-6.39
			c0.24-0.32,0.13-0.57-0.22-0.73C34.18,1.88,33.13,1.51,32.11,1.55z"/>
	</g>
	<g>
		<path class="st9" d="M26.94,1.6c0.54,0.02,1.02,0.07,1.06,0.76c-0.12,0.12-0.25,0.25-0.37,0.37c-0.13,0.25-0.25,0.5-0.38,0.76
			c-0.09,0.07-0.15,0.15-0.22,0.23c0.07-0.08,0.15-0.15,0.22-0.23c-0.07,0.08-0.15,0.15-0.22,0.23c-0.05,0.05-0.09,0.1-0.14,0.15
			c0,0.11,0,0.21,0.01,0.32c0,0,0,0,0,0l0,0c0.98,0.25,1.99,0.07,2.98,0.13c0.07-0.46-0.18-0.83-0.35-1.22
			c-0.1-0.08-0.18-0.17-0.26-0.27c-0.04-0.04-0.07-0.07-0.11-0.11c0.04,0.04,0.07,0.07,0.11,0.11c-0.03-0.04-0.07-0.07-0.11-0.11
			c-0.16-0.37-0.4-0.7-0.38-1.13c0-0.13,0-0.25,0-0.38c0,0,0,0,0,0l0,0C28.01,1.2,27.6,0.7,27.26,0.1
			c-0.89-0.07-1.32,0.65-1.89,1.12C25.8,1.77,26.4,1.58,26.94,1.6z M27.64,2.73c0.12-0.12,0.25-0.25,0.37-0.37
			C27.89,2.48,27.76,2.6,27.64,2.73z"/>
	</g>
	<g>
		<path class="st8" d="M26.62,4.29c-0.02-0.03-0.05-0.06-0.07-0.09C26.57,4.24,26.59,4.27,26.62,4.29z"/>
	</g>
	<g>
		<path class="st8" d="M26.54,4.2c0.12,0.01,0.23,0.01,0.35-0.01c0,0,0,0,0,0c0-0.11,0-0.22-0.01-0.32c0.05-0.05,0.1-0.1,0.14-0.15
			c0.07-0.08,0.14-0.16,0.22-0.23c0.13-0.25,0.25-0.5,0.38-0.76c0.12-0.12,0.25-0.25,0.37-0.37c-0.05-0.69-0.53-0.74-1.06-0.76
			c-0.54-0.02-1.15,0.18-1.57-0.37c-0.46,0.13-0.63,0.42-0.36,0.83C25.5,2.79,26.03,3.49,26.54,4.2z"/>
	</g>
	<g>
		<path class="st8" d="M27.03,3.72c-0.05,0.05-0.1,0.1-0.14,0.15C26.94,3.82,26.99,3.77,27.03,3.72z"/>
	</g>
	<g>
		<path class="st10" d="M28.77,1.22C28.77,1.22,28.77,1.22,28.77,1.22c0,0.13,0,0.25,0,0.38c0.88-0.14,1.84,0.33,2.64-0.37v0l0,0
			c-0.27-0.36-0.54-0.72-0.81-1.08c0,0,0,0,0,0c-0.23-0.02-0.46-0.04-0.69-0.06C29.74,0.68,29.05,0.75,28.77,1.22z"/>
	</g>
	<g>
		<path class="st11" d="M32.11,1.55c1.02-0.04,2.06,0.34,3.04-0.24c-0.56-0.49-1.05-1.09-1.86-1.22C32.9,0.57,32.51,1.06,32.11,1.55
			z"/>
	</g>
	<g>
		<path class="st12" d="M31.41,1.23L31.41,1.23c0.13,0.11,0.26,0.21,0.39,0.32c0.11,0.01,0.23,0.02,0.34,0.01c0,0,0,0,0,0
			c0,0-0.03-0.01-0.03-0.01c0,0,0,0,0,0c0.39-0.49,0.79-0.97,1.18-1.46c-0.9,0.02-1.8,0.04-2.7,0.06c0,0,0,0,0,0
			C30.87,0.51,31.14,0.87,31.41,1.23z"/>
	</g>
	<g>
		<path class="st8" d="M28.77,1.22L28.77,1.22c0.28-0.47,0.97-0.54,1.13-1.13c-0.88-0.12-1.76-0.13-2.64,0.01v0
			C27.6,0.7,28.01,1.2,28.77,1.22z"/>
	</g>
	<g>
		<path class="st13" d="M31.96,4.23c0.4-0.03,0.88,0.16,1.18-0.35c0.03-0.92-0.99-1.41-1-2.32c0,0,0,0,0,0c-0.11,0-0.23,0-0.34-0.01
			c-0.01,1.02-1.17,1.55-1.18,2.69C31.1,4.24,31.53,4.26,31.96,4.23z"/>
	</g>
	<g>
		<path class="st14" d="M29.15,5.75c0.54,0.67,1.54,1.04,1.91,0.6c0.56-0.64-0.26-0.9-0.54-1.29c-0.13-0.19-0.39-0.29-0.58-0.43
			c0,0,0,0,0,0C29.67,5,29.41,5.37,29.15,5.75z"/>
	</g>
	<g>
		<path class="st15" d="M29.26,2.84c0.09,0.09,0.18,0.18,0.26,0.27"/>
	</g>
	<g>
		<path class="st15" d="M29.15,2.73c0.04,0.04,0.07,0.07,0.11,0.11"/>
	</g>
	<g>
		<path class="st15" d="M27.64,2.73c0.12-0.12,0.25-0.25,0.37-0.37"/>
	</g>
	<g>
		<path class="st15" d="M27.03,3.72c-0.05,0.05-0.1,0.1-0.14,0.15"/>
	</g>
	<g>
		<path class="st15" d="M27.03,3.72c0.07-0.08,0.15-0.15,0.22-0.23"/>
	</g>
</g>
</svg>
