<?xml version="1.0" encoding="utf-8"?>
<!-- Generator: Adobe Illustrator 23.1.0, SVG Export Plug-In . SVG Version: 6.00 Build 0)  -->
<svg version="1.1" id="Layer_1" xmlns="http://www.w3.org/2000/svg" xmlns:xlink="http://www.w3.org/1999/xlink" x="0px" y="0px"
	 viewBox="0 0 115.3 122.9" style="enable-background:new 0 0 115.3 122.9;" xml:space="preserve">
<style type="text/css">
	.st0{fill:#FFFFFF;}
</style>
<title>enrollment</title>
<path class="st0" d="M57.3,116.3c1.8,0.1,3.2,1.6,3.1,3.4c-0.1,1.7-1.4,3-3.1,3.1H7.6c-4.2,0-7.6-3.4-7.6-7.6V7.6C0,3.4,3.4,0,7.6,0
	h90.8c4.2,0,7.6,3.4,7.6,7.6c0,0,0,0,0,0v54c0,0.5,0,1-0.1,1.4h-0.7l0,0h-0.4h-0.1l0,0l0,0h-0.1h-0.1l0,0l0,0h-0.1l0,0h-0.1l0,0l0,0
	h-0.1l0,0h-0.1l0,0l0,0h-0.1l0,0h-0.1H104h-0.1l0,0h-0.1l0,0l0,0h-0.1l0,0h-0.1h-0.1h-0.1l0,0h-0.1l0,0l0,0h-0.1l0,0h-0.1h-0.3h-0.1
	l0,0h-0.1h-0.1h-0.1h-3.2V7.6c0-0.6-0.5-1.1-1.1-1.1H7.6C7.3,6.5,7,6.6,6.8,6.8C6.6,7,6.5,7.3,6.5,7.6v107.7c0,0.3,0.1,0.6,0.3,0.8
	c0.2,0.2,0.5,0.3,0.8,0.3L57.3,116.3z M92.4,116.5L76,122.1l0.1-18.3L92.4,116.5L92.4,116.5z M80.7,97.7l17.7-24
	c0.4-0.6,1.2-0.8,1.9-0.6L114.8,84c0.6,0.5,0.7,1.3,0.3,1.9c0,0-0.1,0.1-0.1,0.1l-18,24.3L80.7,97.7z M29.1,62.8
	c-0.4-1.1-0.4-2.2-0.2-3.4c0.5-3.5,1.4-4.2,4.7-5.1c3.7-1,7.8-1.1,11-3.3c0.3-0.5,0.5-0.9,0.7-1.4c0.4-0.8,0.7-1.8,0.9-2.4
	c-0.9-1.1-1.7-2.2-2.4-3.5l-2.5-3.9c-0.8-1-1.3-2.3-1.4-3.6c0-0.4,0.1-0.9,0.3-1.3c0.2-0.4,0.5-0.8,0.8-1c0.2-0.1,0.4-0.2,0.6-0.3
	c-0.2-2.3-0.2-4.7-0.1-7c0.1-0.5,0.2-1.1,0.3-1.6c0.7-2.2,2.2-4.1,4.1-5.3c1.1-0.7,2.2-1.2,3.5-1.5c0.8-0.2-0.7-2.7,0.1-2.8
	c3.9-0.4,10.2,3.2,12.9,6.1c1.5,1.7,2.3,3.8,2.4,6L64.8,34l0,0c0.6,0.2,1.1,0.7,1.3,1.3c0.1,1.2-0.1,2.3-0.7,3.3l0,0v0.1l-2.8,4.6
	c-0.9,1.7-2.1,3.3-3.4,4.7l0.4,0.5c0.5,0.8,1.1,1.6,1.8,2.3c0,0,0,0,0.1,0.1c2.4,1.7,7.2,2.4,10.8,3.3c3,0.8,4.1,1,4.8,4.3
	c0.3,1.6,0.3,3.4-0.1,4.1L29.1,62.8z M26.7,97.9c-1.8-0.1-3.2-1.7-3.1-3.5c0.1-1.7,1.4-3,3.1-3.1H71l0,0l0,0l0,0l0,0l0,0l0,0l0,0
	l0,0l-0.1,0.1l0,0l0,0l0,0l0,0l0,0l0,0v0.1l0,0l0,0l0,0l0,0l0,0l0,0l0,0l0,0l0,0l0,0l0,0l0,0l0,0l0,0l0,0l0,0l0,0l0,0l0,0l0,0l0,0
	l0,0l0,0v0.1l0,0l0,0l0,0l0,0l0,0l0,0l0,0l0,0l0,0l0,0l0,0l0,0l0,0l0,0l0,0l0,0l0,0l0,0V93l0,0l0,0l0,0l0,0v0.1l0,0l0,0l0,0l0,0l0,0
	l0,0l0,0l0,0l0,0l0,0l0,0l0,0l0,0v0.1l0,0l0,0l0,0l0,0l0,0V94l0,0l0,0l0,0v0.1l0,0l0,0h-0.1h-0.1l0,0h-0.1h-0.1l0,0l0,0h-0.1l0,0
	l0,0h-0.1l0,0l0,0h-0.1l0,0l0,0l-0.1,0.1h-0.1l0,0h-0.1l-0.1,0.1l0,0h-0.1h-0.1l0,0l0,0l-0.1,0.1l0,0l0,0H70l0,0l0,0L70,94.3h-0.1
	l0,0l-0.1,0.1l0,0l0,0l0,0l-0.1,0.1l0,0l0,0l-0.1,0.1l0,0l0,0v0.1l0,0l0,0v0.1v0.1l0,0v0.1l0,0l0,0l-0.1,0.1v0.1l0,0h-0.1v0.1l0,0
	l0,0V95l0,0l0,0L69.6,95l0,0l0,0v0.1l0,0l0,0v0.1v0.1l0,0v0.1v0.1l0,0l-0.1,0.1v0.1l0,0l0,0v0.1l0,0l0,0v0.1l0,0l0,0v0.1l0,0l0,0
	v0.1v0.1l0,0v0.1L26.7,97.9z M27.9,79.7c-1.8,0.1-3.3-1.3-3.4-3.1s1.3-3.3,3.1-3.4c0.1,0,0.2,0,0.4,0h47.8c1.8-0.1,3.3,1.3,3.4,3.1
	s-1.3,3.3-3.1,3.4c-0.1,0-0.2,0-0.4,0H27.9z"/>
</svg>
