<?xml version="1.0" encoding="utf-8"?>
<!-- Generator: Adobe Illustrator 23.1.0, SVG Export Plug-In . SVG Version: 6.00 Build 0)  -->
<svg version="1.1" id="Layer_1" xmlns="http://www.w3.org/2000/svg" xmlns:xlink="http://www.w3.org/1999/xlink" x="0px" y="0px"
	 viewBox="0 0 110.5 122.9" style="enable-background:new 0 0 110.5 122.9;" xml:space="preserve">
<style type="text/css">
	.st0{fill-rule:evenodd;clip-rule:evenodd;fill:#FFFFFF;}
</style>
<title>legal-contract-paper</title>
<path class="st0" d="M78.1,80.3c0.6,0,1.3,0.2,1.8,0.6c0.7,0.4,1.5,1.3,2.5,1.9c1.4,0.8,3.9-0.3,5.2,1.7c0.6,0.9,0.9,1.9,0.8,2.9
	c0,1.1,0.5,2.2,1.2,3.1c1.6,2.1,1.9,3.5,1.1,5c-0.6,1-1.8,1.6-2,2.2c-0.6,1.3,0.1,2.4-0.7,3.9c-0.5,1-1.4,1.8-2.6,2.2
	c-1,0.3-1.9-0.1-2.7,0.2c-1.3,0.6-2.3,1.9-3.4,2.2c-0.4,0.1-0.8,0.2-1.2,0.2c-0.4,0-0.8-0.1-1.2-0.2c-1.1-0.3-2.1-1.7-3.4-2.2
	c-0.8-0.3-1.7,0.1-2.7-0.2c-1.1-0.3-2-1.1-2.5-2.2c-0.8-1.6-0.2-2.6-0.7-3.9c-0.3-0.6-1.4-1.2-2-2.2c-0.8-1.5-0.5-2.9,1.1-5
	c0.7-0.9,1.2-1.9,1.2-3.1c0-1,0.3-2,0.8-2.9c1.3-1.9,3.9-0.8,5.2-1.7c1-0.6,1.8-1.4,2.5-1.9C76.8,80.5,77.5,80.3,78.1,80.3
	L78.1,80.3z M15.6,122.9c-3.9,0.1-7.4-0.1-10.1-1.4C2,119.9,0,116.8,0,111v-5.3h15.1V13.4c-0.2-5.3,1.1-8.6,3.4-10.7
	s5.6-2.6,9.3-2.7c0.2-0.1,74.8,0,82.6,0v110.2c0,4.5-1.1,7.6-3.4,9.7s-5.5,3-9.8,3L15.6,122.9z M34,23.5c-1.2,0-2.1-1-2.1-2.1
	c0-1.2,1-2.1,2.1-2.1c0,0,0,0,0,0h38.9c1.2,0,2.1,1,2.1,2.1c0,1.2-1,2.1-2.1,2.1H34z M34,38c-1.2,0-2.1-1-2.1-2.1
	c0-1.2,1-2.1,2.1-2.1h57.1c1.2,0,2.1,1,2.1,2.1s-1,2.1-2.1,2.1L34,38z M34,81.5c-1.2,0-2.1-1-2.1-2.1c0-1.2,0.9-2.1,2.1-2.1h19.7
	c1.2,0,2.1,1,2.1,2.1c0,1.2-0.9,2.1-2.1,2.1H34z M34,67c-1.2,0-2.1-1-2.1-2.1c0-1.2,1-2.1,2.1-2.1h57.1c1.2,0,2.1,1,2.1,2.1
	c0,1.2-1,2.1-2.1,2.1H34z M34,52.5c-1.2,0-2.1-0.9-2.1-2.1c0-1.2,0.9-2.1,2.1-2.1h57.4c1.2,0,2.1,0.9,2.1,2.1c0,1.2-0.9,2.1-2.1,2.1
	H34z M33,96.8c4.9-6.5,9.2-3.6,15,0.6l0.9,0.6c1.6,1.1,3.5-0.5,5.3-2.1c0.8-0.8,1.7-1.5,2.6-2.1l1.8,2.9c-0.8,0.5-1.5,1.1-2.2,1.8
	c-2.8,2.4-5.7,5-9.4,2.3l-0.9-0.6c-4.3-3-7.4-5.2-10.4-1.3L33,96.8z M15.1,110H4.3v1c0,3.8,1.1,5.7,3,6.6s4.6,1,7.8,1L15.1,110
	L15.1,110z M106.2,110.2V4.3H27.9c-2.8,0-5.1,0.4-6.6,1.6s-2.1,3.5-2,7.4v105.3h78c3.2,0,5.5-0.6,6.9-1.8S106.2,113.4,106.2,110.2
	L106.2,110.2z M78.1,85.5c4.3,0,7.8,3.5,7.8,7.8c0,4.3-3.5,7.8-7.8,7.8c-4.3,0-7.8-3.5-7.8-7.8c0,0,0,0,0,0
	C70.3,89,73.8,85.5,78.1,85.5z"/>
</svg>
