<?xml version="1.0" encoding="utf-8"?>
<!-- Generator: Adobe Illustrator 23.1.0, SVG Export Plug-In . SVG Version: 6.00 Build 0)  -->
<svg version="1.1" id="Layer_1" xmlns="http://www.w3.org/2000/svg" xmlns:xlink="http://www.w3.org/1999/xlink" x="0px" y="0px"
	 viewBox="0 0 122.9 112.9" style="enable-background:new 0 0 122.9 112.9;" xml:space="preserve">
<style type="text/css">
	.st0{fill:#FFFFFF;}
</style>
<title>headset</title>
<path class="st0" d="M15.3,87.6c0.2,1.6,0.6,3.2,1.2,4.7c0.6,1.6,1.6,3,2.8,4.3c3.9,3.8,8.9,3.8,14.4,3.8l0,0h2.6
	c2.3-3.3,7.6-5.6,13.8-5.6c8.3,0,15,4.1,15,9.1s-6.7,9.1-15,9.1c-6.1,0-11.3-2.2-13.7-5.4h-2.8c-7.1,0-13.5,0-19.5-5.9
	c-1.9-1.9-3.4-4.2-4.4-6.7c-0.9-2.4-1.5-4.9-1.8-7.4c-4.4-0.1-8-3.7-8-8.2V49.9c0-4.5,3.7-8.2,8.2-8.2h0.6c1.5-15.1,11-27,23.9-34.1
	c7.6-4.2,16.1-6.7,24.7-7.4c8.8-0.8,17.7,0.5,26,3.7c14.4,5.7,26.6,17.8,31.3,37.8h0.1c4.5,0,8.2,3.7,8.2,8.2v29.5
	c0,4.5-3.7,8.2-8.2,8.2h-8.2V42.4C102.3,26,92.3,16,80.4,11.3C73.3,8.6,65.6,7.5,58,8.2c-7.5,0.6-14.9,2.8-21.5,6.4
	C25.4,20.8,17.2,31,16.6,44c0,0.4-0.1,0.8-0.2,1.2v42.4H15.3z"/>
</svg>
