<?xml version="1.0" encoding="utf-8"?>
<!-- Generator: Adobe Illustrator 23.1.0, SVG Export Plug-In . SVG Version: 6.00 Build 0)  -->
<svg version="1.1"
	 id="Layer_1" image-rendering="optimizeQuality" shape-rendering="geometricPrecision" text-rendering="geometricPrecision"
	 xmlns="http://www.w3.org/2000/svg" xmlns:xlink="http://www.w3.org/1999/xlink" x="0px" y="0px" viewBox="0 0 512 496.6"
	 style="enable-background:new 0 0 512 496.6;" xml:space="preserve">
<style type="text/css">
	.st0{fill-rule:evenodd;clip-rule:evenodd;fill:#FFFFFF;}
</style>
<path class="st0" d="M42.1,42.3h38.8v51.8c0,14.4,6.7,27.1,17.5,36c9.1,7.5,21.3,12.1,34.3,12.1c13,0,25.1-4.6,34.3-12.1
	c10.8-8.8,17.5-21.6,17.5-36V42.3h78.4v51.8c0,14.4,6.7,27.1,17.5,36c9.1,7.5,21.3,12.1,34.3,12.1c13,0,25.1-4.6,34.3-12.1
	c10.8-8.8,17.5-21.6,17.5-36V42.3h40.5c11.6,0,22.1,4.8,29.7,12.4c7.6,7.6,12.4,18.1,12.4,29.7v144.2c-5.9-2.3-11.9-4.2-18-5.7
	v-58.8H18V409c0,18.2,14.9,33.1,33.1,33.1h201.4c3,6.2,6.5,12.2,10.3,18H42.1c-11.5,0-22.1-4.7-29.7-12.4C4.7,440.1,0,429.6,0,418
	V84.4c0-11.6,4.7-22.1,12.4-29.7C20,47.1,30.5,42.4,42.1,42.3z M366.3,473c5.4,1.4,8.6,7,7.1,12.3c-1.4,5.4-7,8.6-12.3,7.1
	c-4.7-1.2-9.3-2.8-13.7-4.6c-25.7-10.3-46.3-28.8-59.5-51.6c-15.5-26.7-20.7-59.4-12.1-91.5c8.6-32.1,29.5-57.8,56.2-73.2
	c26.7-15.5,59.4-20.7,91.5-12.1c11.2,3,21.7,7.5,31.2,13.2c7.6,4.6,14.6,10,21,16.1l-0.5-5.3c-0.6-5.5,3.4-10.4,9-11s10.4,3.5,11,9
	l2.9,27.8c0.1,1,0,2-0.1,3c-0.4,5-4.5,9-9.7,9.1l-28,1c-5.5,0.2-10.1-4.2-10.3-9.7c-0.2-5.5,4.2-10.1,9.7-10.3l1.1,0
	c-5-4.6-10.5-8.8-16.4-12.4c-7.9-4.8-16.6-8.5-26-11c-26.8-7.2-54-2.8-76.3,10c-22.3,12.8-39.7,34.2-46.8,61
	c-7.2,26.8-2.8,54,10,76.3c6.4,11.1,14.9,21,25.1,29C340.6,463.1,353.8,469.7,366.3,473L366.3,473z M387.6,312.6h20.1l-0.5,12.7
	c8.5,0.5,15.8,1.4,22.2,2.5l-4.6,24.5h-23.7c-3.7,0-6.1,0.6-7.4,1.7s-1.9,3.4-2,6.6l10,1.1c12.1,1.4,20.5,4.5,25.1,9.3
	c4.6,4.9,6.9,11.1,6.9,18.8s-0.8,13.9-2.4,18.4c-1.6,4.6-3.9,8.1-6.8,10.5c-5.4,4.1-12.4,6.5-21.2,7.1l-0.5,16h-20.4l0.6-16
	c-10-0.7-18.5-2-25.5-3.8l4.6-25.1c8.8,2.3,17.9,3.5,27.5,3.5c4,0,7.8-0.2,11.2-0.6v-6.6l-9.8-1.1c-12.7-1.3-21.1-5-25.3-11.1
	c-3.7-5.4-5.5-12.4-5.5-21c0-11.4,2.3-19.7,7-24.8c4.7-5.2,11.3-8.3,19.9-9.5L387.6,312.6L387.6,312.6z M398.4,476.4
	c-14,1.2-11.4,21.2,1.1,20.1c7.1-0.3,14.9-1.5,21.8-3.3c12.9-3.2,8-22.8-4.9-19.5C410.5,475.2,404.5,476.1,398.4,476.4L398.4,476.4z
	 M449.6,458.8c-10.9,7.6,0.7,24.1,11.5,16.5c5.9-4,11.9-9.1,16.8-14.3c9.1-9.1-4.8-23.7-14.5-14
	C459.5,451.2,454.4,455.5,449.6,458.8L449.6,458.8z M484,416.8c-5.4,11.9,12.8,20.5,18.4,8.2c3.1-7,5.1-13.4,7.1-20.8
	c3.2-12.6-16.3-17.8-19.6-4.7C488.2,405.7,486.7,410.8,484,416.8L484,416.8z M491.9,363c2.1,12.7,20.1,11,20.1-1.5l-0.1-1.1
	c-1-7.4-2.5-14.3-4.8-21.4c-4.3-12.9-23.3-6.2-19.2,6.2C489.8,351,491.1,357,491.9,363L491.9,363z M197.4,319.3h49.4
	c-6.4,17.1-9.9,35.5-9.9,54.8c0,3.6,0.1,7.2,0.4,10.7h-39.9c-4.2,0-7.7-3.5-7.7-7.7v-50.2C189.7,322.7,193.2,319.3,197.4,319.3z
	 M197.4,212.6h60.3c4.2,0,7.7,3.5,7.7,7.7v50.2c0,4.2-3.5,7.7-7.7,7.7h-60.3c-4.2,0-7.7-3.5-7.7-7.7v-50.2
	C189.7,216,193.2,212.6,197.4,212.6L197.4,212.6z M75.8,212.6h60.3c4.2,0,7.7,3.5,7.7,7.7v50.2c0,4.2-3.5,7.7-7.7,7.7H75.8
	c-4.2,0-7.7-3.5-7.7-7.7v-50.2C68.1,216,71.5,212.6,75.8,212.6L75.8,212.6z M319,212.6h60.3c3.6,0,6.6,2.5,7.4,5.8
	c-27.6,1-53.3,9.3-75.4,22.8v-20.9C311.3,216,314.8,212.6,319,212.6z M75.8,319.3h60.3c4.2,0,7.7,3.5,7.7,7.7v50.2
	c0,4.2-3.5,7.7-7.7,7.7H75.8c-4.2,0-7.7-3.5-7.7-7.7v-50.2C68.1,322.7,71.5,319.3,75.8,319.3z M294.3,16.7c0-9.2,9.1-16.7,20.3-16.7
	c11.2,0,20.3,7.5,20.3,16.7v77.5c0,9.2-9.1,16.7-20.3,16.7c-11.2,0-20.3-7.5-20.3-16.7V16.7z M112.4,16.7c0-9.2,9.1-16.7,20.3-16.7
	C143.9,0,153,7.5,153,16.7v77.5c0,9.2-9.1,16.7-20.3,16.7c-11.2,0-20.3-7.5-20.3-16.7C112.4,94.1,112.4,16.7,112.4,16.7z"/>
</svg>
