<?xml version="1.0" encoding="utf-8"?>
<!-- Generator: Adobe Illustrator 23.1.0, SVG Export Plug-In . SVG Version: 6.00 Build 0)  -->
<svg version="1.1" id="Layer_1" xmlns="http://www.w3.org/2000/svg" xmlns:xlink="http://www.w3.org/1999/xlink" x="0px" y="0px"
	 viewBox="0 0 122.9 89.1" style="enable-background:new 0 0 122.9 89.1;" xml:space="preserve">
<style type="text/css">
	.st0{fill:#FFFFFF;}
</style>
<title>notification-alarm-buzzer</title>
<path class="st0" d="M70,9.2c5,1.5,9.5,4.4,13.1,8.2c3.9,4.1,6.4,9.2,7.5,14.8c0.5,3.6,0.6,7.3,0.5,10.9c0,2.5-0.1,4.9,0.1,7.2
	c0.2,3.6,1.2,7,3,10.1c2,3.2,4.7,5.8,7.9,7.8c0.9,0.6,1.6,1.5,1.8,2.5c0.2,0.8,0.2,1.7,0,2.5c-0.2,0.8-0.7,1.5-1.3,2.1
	c-0.8,0.7-1.9,1.1-2.9,1.1H75.9l0,0l0,0c-1.1,8-8.4,13.5-16.4,12.4C53,88,47.9,82.9,47,76.5H23.4c-1.1,0-2.2-0.4-3-1.2
	c-1.2-1.2-1.7-2.9-1.3-4.5c0.3-1.1,1-2,1.9-2.6c3.5-2.2,6.4-5.2,8.4-8.8c1.8-3.7,2.7-7.9,2.5-12c0-1.6,0-2.5,0-3.4
	c-0.2-4,0-7.9,0.5-11.8c2-10.9,10-19.8,20.7-23c0.7-1.6,1.9-2.9,3.4-3.8c3.1-1.8,6.9-1.8,10,0C68.1,6.2,69.3,7.6,70,9.2z M17.7,3.5
	c-0.2,0.2-0.4,0.4-0.6,0.6C15.6,5,14.3,6,13,7.2c-1.2,1.1-2.3,2.3-3.4,3.5c-1,1.2-1.8,2.5-2.6,3.9c-0.7,1.3-1.3,2.8-1.7,4.2
	c-0.4,1.5-0.7,3-0.8,4.5c-0.1,1.6-0.1,3.1,0,4.7c0.2,1.6,0.5,3.2,0.9,4.8c0.5,1.7,1.1,3.3,1.8,4.9c0.1,0.3,0.2,0.5,0.2,0.8
	c0,0.3,0,0.6-0.1,0.8c-0.1,0.3-0.2,0.5-0.4,0.7c-0.2,0.2-0.4,0.4-0.6,0.5c-0.1,0-0.1,0.1-0.2,0.1c-0.2,0.1-0.5,0.2-0.8,0.2
	c-0.3,0-0.6,0-0.8-0.1c-0.3-0.1-0.5-0.2-0.7-0.4c-0.2-0.2-0.4-0.4-0.5-0.6l-0.1-0.2c-0.8-1.8-1.5-3.7-2-5.6c-0.5-1.8-0.8-3.7-1-5.5
	c-0.2-1.8-0.2-3.7,0-5.5c0.2-1.8,0.5-3.5,1-5.3l0,0c0.5-1.7,1.2-3.4,2-5C4,11,5,9.4,6.1,8C7.3,6.5,8.6,5.2,10,3.9
	c1.5-1.3,3-2.5,4.7-3.5l0,0c0.3-0.2,0.5-0.3,0.9-0.4c0.3,0,0.5,0,0.8,0l0,0c0.3,0.1,0.5,0.2,0.8,0.3c0.2,0.2,0.4,0.4,0.6,0.6l0,0
	C17.9,1.2,18,1.5,18,1.8c0.1,0.3,0.1,0.6,0,0.9C18,2.9,17.8,3.2,17.7,3.5L17.7,3.5z M29.3,13.3L29.3,13.3c-1,0.6-2.1,1.4-3,2.1
	c-0.9,0.7-1.6,1.5-2.4,2.3l0,0c-0.7,0.8-1.2,1.6-1.7,2.5c-0.5,0.9-0.9,1.8-1.2,2.8c-0.3,0.9-0.4,1.9-0.5,2.9c0,1,0,2.1,0.1,3.1
	c0.2,1.1,0.4,2.2,0.8,3.3l0,0c0.4,1.2,0.9,2.3,1.4,3.4c0.1,0.3,0.2,0.5,0.2,0.8c0,0.3,0,0.6-0.1,0.8l0,0c-0.1,0.3-0.2,0.5-0.4,0.7
	c-0.2,0.2-0.4,0.4-0.6,0.5h-0.1c-0.3,0.1-0.5,0.2-0.8,0.2c-0.3,0-0.6,0-0.8-0.1l0,0c-0.3-0.1-0.5-0.2-0.7-0.4
	c-0.2-0.2-0.4-0.4-0.5-0.6v-0.1c-0.7-1.3-1.2-2.7-1.7-4.2c-0.4-1.3-0.7-2.6-0.9-4c-0.2-1.3-0.2-2.6-0.2-3.9c0.1-1.3,0.3-2.5,0.6-3.8
	c0.3-1.2,0.8-2.4,1.4-3.5c0.6-1.2,1.4-2.3,2.2-3.3c0.9-1.1,1.9-2,2.9-2.9c1.1-0.9,2.3-1.8,3.6-2.6l0,0c0.2-0.2,0.5-0.3,0.8-0.3
	c0.3-0.1,0.6-0.1,0.9,0c0.3,0.1,0.5,0.2,0.8,0.3c0.2,0.2,0.4,0.4,0.6,0.6l0.1,0.1c0.1,0.2,0.2,0.5,0.3,0.8c0.1,0.6,0,1.2-0.4,1.7
	c-0.2,0.2-0.4,0.4-0.6,0.6L29.3,13.3L29.3,13.3z M105.8,4.1c-0.2-0.2-0.5-0.4-0.6-0.6c-0.2-0.2-0.3-0.5-0.3-0.8
	c-0.1-0.3-0.1-0.6,0-0.9c0-0.3,0.2-0.6,0.3-0.8l0,0c0.2-0.2,0.4-0.5,0.6-0.6c0.2-0.2,0.5-0.3,0.8-0.3l0,0c0.3,0,0.5,0,0.8,0
	c0.3,0.1,0.6,0.2,0.8,0.3l0,0c1.6,1.1,3.2,2.2,4.7,3.5c1.4,1.2,2.8,2.6,4,4.1c1.1,1.4,2.1,3,3,4.6c0.8,1.6,1.5,3.3,2,5l0,0
	c0.5,1.7,0.8,3.5,1,5.3c0.2,1.8,0.2,3.7,0,5.5c-0.2,1.9-0.5,3.7-1,5.5c-0.5,1.9-1.2,3.8-2,5.6l-0.1,0.2c-0.1,0.2-0.3,0.5-0.5,0.6
	c-0.2,0.2-0.4,0.3-0.7,0.4c-0.5,0.2-1.1,0.2-1.6,0l-0.2-0.1c-0.2-0.1-0.4-0.3-0.6-0.5c-0.2-0.2-0.3-0.4-0.4-0.7
	c-0.1-0.3-0.2-0.6-0.1-0.8c0-0.3,0.1-0.6,0.2-0.8c0.7-1.6,1.3-3.2,1.8-4.9c0.4-1.6,0.7-3.2,0.9-4.8c0.1-1.6,0.1-3.1,0-4.7
	c-0.1-1.5-0.4-3-0.8-4.5c-0.4-1.5-1-2.9-1.7-4.2c-0.7-1.4-1.6-2.7-2.6-3.9c-1-1.3-2.1-2.5-3.4-3.5C108.7,6,107.3,5,105.8,4.1
	L105.8,4.1z M93.6,13.4l-0.1-0.1c-0.2-0.2-0.4-0.3-0.6-0.6c-0.3-0.5-0.4-1-0.4-1.6c0-0.3,0.1-0.5,0.3-0.8l0.1-0.1
	c0.2-0.2,0.3-0.4,0.6-0.6c0.2-0.2,0.5-0.3,0.7-0.3c0.6-0.1,1.2,0,1.7,0.3l0,0c1.3,0.8,2.5,1.6,3.6,2.6c1.1,0.9,2,1.9,2.9,2.9
	c0.8,1,1.6,2.1,2.2,3.3c0.6,1.1,1.1,2.3,1.4,3.5c0.3,1.2,0.6,2.5,0.6,3.8c0.1,1.3,0,2.6-0.2,3.9c-0.2,1.4-0.5,2.7-0.9,4
	c-0.5,1.4-1,2.8-1.7,4.2v0.1c-0.1,0.2-0.3,0.5-0.5,0.6c-0.2,0.2-0.5,0.3-0.7,0.4l0,0c-0.3,0.1-0.5,0.1-0.8,0.1
	c-0.3,0-0.6-0.1-0.8-0.2h-0.1c-0.2-0.1-0.5-0.3-0.6-0.5c-0.2-0.2-0.3-0.5-0.4-0.7l0,0c-0.1-0.3-0.1-0.5-0.1-0.8
	c0-0.3,0.1-0.6,0.2-0.8c0.6-1.1,1-2.3,1.4-3.5l0,0c0.4-1.1,0.6-2.2,0.8-3.3c0.1-1,0.2-2,0.2-3.1c-0.1-1-0.2-1.9-0.5-2.9
	c-0.3-0.9-0.6-1.9-1.1-2.7c-0.5-0.9-1.1-1.8-1.8-2.6l0,0c-0.7-0.8-1.5-1.6-2.4-2.3C95.7,14.8,94.7,14,93.6,13.4L93.6,13.4z
	 M79.6,20.6c-3.2-3.5-7.4-6-12-7.2c-0.8-0.2-1.4-0.8-1.6-1.6c-0.3-1-0.9-1.9-1.8-2.4c-0.8-0.5-1.7-0.7-2.6-0.7
	c-0.9,0-1.8,0.2-2.6,0.7c-0.9,0.5-1.5,1.4-1.8,2.4c-0.2,0.8-0.9,1.4-1.7,1.6C46,15.8,38.8,23.4,37,33c-0.5,3.6-0.6,7.3-0.4,11
	c0,1.4,0,2.8,0,3.4c0.2,4.9-0.9,9.8-3.1,14.1c-2.2,4.1-5.5,7.6-9.4,10.2h74.6c-3.5-2.3-6.4-5.3-8.6-8.9c-2.2-3.7-3.4-7.9-3.7-12.2
	c-0.2-2.4-0.1-5-0.1-7.6c0.2-3.3,0-6.7-0.4-10C85,28.4,82.9,24.1,79.6,20.6L79.6,20.6z"/>
</svg>
