<?xml version="1.0" encoding="utf-8"?>
<!-- Generator: Adobe Illustrator 23.1.0, SVG Export Plug-In . SVG Version: 6.00 Build 0)  -->
<svg version="1.1" id="Layer_1" xmlns="http://www.w3.org/2000/svg" xmlns:xlink="http://www.w3.org/1999/xlink" x="0px" y="0px"
	 viewBox="0 0 122.9 98.3" style="enable-background:new 0 0 122.9 98.3;" xml:space="preserve">
<style type="text/css">
	.st0{fill:#FFFFFF;}
</style>
<title>photos</title>
<path class="st0" d="M4.8,27.3h85.9c1.3,0,2.5,0.5,3.4,1.4c0.9,0.9,1.4,2.1,1.4,3.4v61.4c0,1.3-0.5,2.5-1.4,3.4
	c-0.1,0.1-0.2,0.2-0.3,0.2c-0.9,0.8-2,1.2-3.2,1.2H4.8c-2.7,0-4.8-2.1-4.8-4.8V32.1c0-1.3,0.5-2.5,1.4-3.4
	C2.3,27.8,3.5,27.3,4.8,27.3L4.8,27.3z M32.2,0h85.9c1.3,0,2.5,0.5,3.4,1.4c0.9,0.9,1.4,2.1,1.4,3.4v61.4c0,1.3-0.5,2.5-1.4,3.4
	c-0.1,0.1-0.2,0.2-0.3,0.2c-0.9,0.8-2,1.2-3.2,1.2h-5.4v-5.8h4.5V5.7H33.1v4.2h-5.8V4.8c0-1.3,0.5-2.5,1.4-3.4
	C29.6,0.5,30.8,0,32.2,0L32.2,0z M18.5,13.7h85.9c1.3,0,2.5,0.5,3.4,1.4c0.9,0.9,1.4,2.1,1.4,3.4v61.3c0,1.3-0.5,2.5-1.4,3.4
	c-0.1,0.1-0.2,0.2-0.3,0.2c-0.9,0.8-2,1.2-3.2,1.2H99v-5.7h4.5V19.4H19.4v4.2h-5.8v-5.1C13.7,15.8,15.8,13.7,18.5,13.7L18.5,13.7z
	 M24.7,44c3.8,0,6.9,3.1,6.9,6.9s-3.1,6.9-6.9,6.9c-3.8,0-6.9-3.1-6.9-6.9c0,0,0,0,0,0C17.8,47.1,20.9,44,24.7,44z M53.7,73.6
	l13.8-23.9l14.7,37.1H13.8v-4.6l5.7-0.3l5.8-14.1l2.9,10.1h8.6l7.5-19.3L53.7,73.6L53.7,73.6z M89.9,33H5.8v59.5h84.1V33z"/>
</svg>
