<?xml version="1.0" encoding="utf-8"?>
<!-- Generator: Adobe Illustrator 23.1.0, SVG Export Plug-In . SVG Version: 6.00 Build 0)  -->
<svg version="1.1"
	 id="Layer_1" image-rendering="optimizeQuality" shape-rendering="geometricPrecision" text-rendering="geometricPrecision"
	 xmlns="http://www.w3.org/2000/svg" xmlns:xlink="http://www.w3.org/1999/xlink" x="0px" y="0px" viewBox="0 0 450 512"
	 style="enable-background:new 0 0 450 512;" xml:space="preserve">
<style type="text/css">
	.st0{fill-rule:evenodd;clip-rule:evenodd;fill:#FFFFFF;}
</style>
<path class="st0" d="M307.3,396.1l-0.1,15.8c0,7.4-6.1,13.4-13.4,13.3l-14.6-0.1c-2.2,7.1-5.2,13.9-9.1,20.1l10.8,10.9
	c5.2,5.2,5.2,13.8,0,18.9l-11.2,11.1c-5.3,5.2-13.8,5.1-19-0.1L239,474.3c-6.1,3.3-12.6,5.9-19.3,7.6l-0.1,16.8
	c0,7.4-6.1,13.4-13.4,13.3l-15.7-0.1c-7.4,0-13.4-6.1-13.3-13.5l0.1-17c-6.7-1.8-13.1-4.4-19.1-7.8l-11.9,11.8
	c-5.2,5.2-13.7,5.2-18.9-0.1l-11.1-11.2c-5.2-5.2-5.2-13.7,0.1-18.9l11.3-11.1c-3.8-6.2-6.7-12.8-8.8-19.8l-15.2-0.1
	c-7.4,0-13.4-6.1-13.3-13.5l0.1-15.7c0-7.4,6.1-13.4,13.4-13.4l13.7,0.1c1.7-7.6,4.6-14.9,8.4-21.8l-9.1-9.2
	c-5.2-5.2-5.2-13.8,0.1-19l11.2-11.1c5.3-5.2,13.8-5.2,18.9,0.1l8.3,8.4c6.9-4.3,14.6-7.6,22.7-9.7l0.1-11.4
	c0-7.4,6.1-13.3,13.4-13.3l15.8,0.1c7.4,0,13.4,6.1,13.3,13.4l0,11.2c8.1,2.1,15.8,5.5,22.8,9.8l8.2-8.1c5.2-5.1,13.7-5.1,18.9,0.1
	l11.1,11.2c5.2,5.2,5.2,13.8,0,18.9l-8.8,8.7c3.8,6.9,6.6,14.4,8.4,22.2l13.1,0.1C301.3,382.7,307.3,388.7,307.3,396.1L307.3,396.1z
	 M145.6,86.8c31.5,1,56.2,27.3,55.2,58.8c-1,31.5-27.3,56.2-58.8,55.2c-31.5-1-56.2-27.3-55.2-58.8
	C87.8,110.5,114.1,85.8,145.6,86.8L145.6,86.8z M241.9,403.7c-0.1,23.8-19.5,43-43.3,42.9c-23.8-0.1-43.1-19.5-42.9-43.3
	c0.1-23.8,19.5-43,43.3-42.9C222.8,360.5,242,379.8,241.9,403.7z M354.7,228.5c19.2-3.6,37.6,9.1,41.2,28.3
	c3.6,19.2-9.1,37.6-28.4,41.2c-19.2,3.5-37.7-9.1-41.2-28.4C322.8,250.5,335.5,232,354.7,228.5z M137.9,0l20.8,0.7
	c9.7,0.3,17.4,8.5,17.1,18.3l-0.6,19.3c9.4,3.1,18.2,7.5,26.2,12.8l14.8-13.9c7.1-6.7,18.4-6.3,25,0.8l14.3,15.2
	c6.7,7.1,6.3,18.4-0.8,25l-15.9,14.9c4.1,8.1,7.3,16.8,9.3,25.8l22.2,0.7c9.8,0.3,17.5,8.5,17.2,18.3l-0.7,20.8
	c-0.3,9.7-8.5,17.4-18.3,17.1l-22.4-0.7c-2.6,8.8-6.3,17.2-11,24.9l15.2,16.2c6.7,7.1,6.3,18.4-0.8,25l-15.2,14.3
	c-7.1,6.7-18.4,6.3-25.1-0.8l-14.3-15.3c-8.2,4.7-17.1,8.4-26.5,10.9l-0.6,20c-0.3,9.8-8.5,17.5-18.3,17.2l-20.8-0.7
	c-9.8-0.3-17.5-8.5-17.2-18.3l0.6-18.1c-10-2.6-19.6-6.6-28.5-11.8l-12.5,11.7c-7.1,6.7-18.3,6.3-25-0.8l-14.3-15.2
	c-6.7-7.1-6.3-18.4,0.8-25.1l11.4-10.7c-5.5-9.4-9.5-19.6-12-30.3L17.2,168c-9.7-0.3-17.4-8.5-17.1-18.3l0.7-20.8
	c0.3-9.7,8.5-17.4,18.3-17.1l14.8,0.5c3.1-10.7,7.8-20.7,13.8-29.8L37.2,71.3c-6.7-7.1-6.3-18.3,0.8-25l15.2-14.3
	c7.1-6.7,18.4-6.3,25,0.8l11.2,11.9c9.2-4.8,19.2-8.3,29.7-10.3l0.5-17.4C119.9,7.4,128.1-0.3,137.9,0L137.9,0z M338.5,176.9
	l12.7-2.4c5.9-1.1,11.7,2.9,12.8,8.8l2.2,11.8c6.1,0.7,12,2.1,17.6,4.3l7.1-10.4c3.4-5,10.3-6.2,15.3-2.8l10.7,7.3
	c5,3.4,6.2,10.3,2.8,15.3L412,220c3.6,4.4,6.6,9.2,9,14.4l13.6-2.5c5.9-1.1,11.7,2.9,12.8,8.8l2.4,12.7c1.1,5.9-2.9,11.7-8.8,12.8
	l-13.7,2.5c-0.4,5.6-1.5,11.2-3.4,16.5l11.4,7.8c5,3.4,6.3,10.3,2.8,15.3l-7.3,10.7c-3.4,5-10.3,6.2-15.3,2.8l-10.7-7.4
	c-4.4,3.9-9.3,7.3-14.6,10.1l2.3,12.2c1.1,5.9-2.9,11.7-8.8,12.8l-12.7,2.4c-5.9,1.1-11.7-2.9-12.8-8.8l-2-11
	c-6.4-0.2-12.7-1.4-18.8-3.4l-6,8.7c-3.4,5-10.3,6.3-15.3,2.8l-10.6-7.3c-5-3.4-6.3-10.3-2.8-15.3l5.5-8c-4.6-5-8.4-10.7-11.3-16.8
	l-9.2,1.7c-5.9,1.1-11.7-2.9-12.8-8.8l-2.4-12.7c-1.1-5.9,2.9-11.7,8.8-12.8l9-1.7c0.5-6.9,2-13.6,4.4-19.9l-7.8-5.3
	c-5-3.4-6.3-10.3-2.8-15.3l7.3-10.6c3.4-5,10.3-6.3,15.3-2.8l8.4,5.8c5-4.1,10.6-7.6,16.6-10.1l-2-10.6
	C328.6,183.7,332.6,178,338.5,176.9L338.5,176.9z"/>
</svg>
