<?xml version="1.0" encoding="utf-8"?>
<!-- Generator: Adobe Illustrator 23.1.0, SVG Export Plug-In . SVG Version: 6.00 Build 0)  -->
<svg version="1.1" id="Layer_1" xmlns="http://www.w3.org/2000/svg" xmlns:xlink="http://www.w3.org/1999/xlink" x="0px" y="0px"
	 viewBox="0 0 110.7 122.9" style="enable-background:new 0 0 110.7 122.9;" xml:space="preserve">
<style type="text/css">
	.st0{fill:#FFFFFF;}
</style>
<g>
	<path class="st0" d="M48.5,116.3c1.8,0,3.3,1.5,3.3,3.3s-1.5,3.3-3.3,3.3H7.6c-2.1,0-4-0.8-5.4-2.2c-1.4-1.4-2.2-3.3-2.2-5.4V7.6
		c0-2.1,0.9-4,2.2-5.4S5.5,0,7.6,0h93.3c2.1,0,4,0.9,5.4,2.2c1.4,1.4,2.2,3.3,2.2,5.4v54c0,1.8-1.5,3.3-3.3,3.3s-3.3-1.5-3.3-3.3
		v-54c0-0.3-0.1-0.6-0.3-0.8c-0.2-0.2-0.5-0.3-0.8-0.3H7.6C7.3,6.5,7,6.6,6.8,6.8C6.7,7.1,6.5,7.3,6.5,7.6v107.7
		c0,0.3,0.1,0.6,0.3,0.8c0.2,0.2,0.5,0.3,0.8,0.3H48.5L48.5,116.3L48.5,116.3z M33.9,57.9c-0.6-1.1-0.2-4.1,1.2-5.2
		c3.8-2.2,9-1.5,12.7-4.1c0.2-0.3,0.4-0.8,0.7-1.3c0.3-0.8,0.6-1.6,0.8-2.2c-0.8-1-1.5-2-2.2-3.1l-2.2-3.5c-0.8-1.2-1.2-2.3-1.3-3.2
		c0-0.4,0.1-0.8,0.2-1.2c0.2-0.4,0.4-0.7,0.8-0.9c0.2-0.1,0.3-0.2,0.5-0.3c-0.2-1.9-0.2-4.3-0.1-6.3c0-0.5,0.1-1,0.3-1.4
		c0.6-2,2-3.6,3.7-4.7c1-0.6,2-1.1,3.1-1.4c0.7-0.2-0.6-2.4,0.1-2.5c3.5-0.4,9.1,2.8,11.6,5.5c1.2,1.3,2,3.1,2.2,5.4l-0.1,5.7l0,0
		c0.6,0.2,1,0.6,1.2,1.2c0.2,0.7,0,1.7-0.6,3l0,0c0,0,0,0,0,0.1l-2.5,4.1c-0.9,1.5-1.9,3-3.1,4.2c0.1,0.2,0.2,0.3,0.3,0.5
		c0.5,0.7,1,1.5,1.6,2.1c0,0,0,0,0,0.1c2.9,2,9.9,2.5,12.6,4l0.1,0.1c1.4,1.1,1.8,4.1,1.2,5.2L33.9,57.9L33.9,57.9z M102.3,79
		c-0.5-0.5-1.1-0.8-1.8-0.7c-0.7,0-1.3,0.3-1.8,0.8l-4.1,4.2l11.4,11l4.1-4.3c0.5-0.5,0.7-1.1,0.7-1.8c0-0.7-0.3-1.3-0.8-1.8
		L102.3,79L102.3,79L102.3,79z M84.5,116.2c-1.5,0.5-3,1-4.5,1.5c-1.5,0.5-3,1-4.5,1.5c-3.5,1.2-5.5,1.8-5.9,1.9
		c-0.4,0.1-0.2-1.5,0.7-5l2.8-10.8l0,0L91,87L102.4,98L84.5,116.2L84.5,116.2L84.5,116.2z M31.7,95.4c-1.8,0-3.3-1.5-3.3-3.3
		s1.5-3.3,3.3-3.3h22.2c1.8,0,3.3,1.5,3.3,3.3s-1.5,3.3-3.3,3.3H31.7L31.7,95.4L31.7,95.4z M31.7,74.7c-1.8,0-3.3-1.5-3.3-3.3
		c0-1.8,1.5-3.3,3.3-3.3h44.1c1.8,0,3.3,1.5,3.3,3.3s-1.5,3.3-3.3,3.3H31.7L31.7,74.7L31.7,74.7z"/>
</g>
</svg>
