<?xml version="1.0" encoding="utf-8"?>
<!-- Generator: Adobe Illustrator 23.1.0, SVG Export Plug-In . SVG Version: 6.00 Build 0)  -->
<svg version="1.1" id="Layer_1" xmlns="http://www.w3.org/2000/svg" xmlns:xlink="http://www.w3.org/1999/xlink" x="0px" y="0px"
	 viewBox="0 0 96.2 122.9" style="enable-background:new 0 0 96.2 122.9;" xml:space="preserve">
<style type="text/css">
	.st0{fill:#FFFFFF;}
</style>
<title>terms-and-conditions</title>
<path class="st0" d="M62.7,110.3l21.5-22.6H62.7C62.7,87.7,62.7,110.3,62.7,110.3z M22.6,45.9V26H16v-6.1h19.9V26h-6.6v20L22.6,45.9
	z M71.2,46.1c-1.4,0-2.7-0.2-4-0.5c-1.2-0.4-2.2-1-3-1.9c-1-1.2-1.6-2.5-1.9-4c-0.5-2.2-0.7-4.5-0.7-6.8c-0.1-2.2,0.2-4.5,0.7-6.7
	c0.3-1.5,1-2.8,2-4c0.8-0.9,1.8-1.6,3-2c1.3-0.4,2.6-0.6,3.9-0.5c1.3,0,2.6,0.1,3.8,0.2c1,0.1,1.9,0.3,2.8,0.5
	c0.6,0.2,1.3,0.4,1.9,0.6v5.3c-0.4-0.1-1-0.2-1.7-0.3s-1.5-0.2-2.4-0.2s-1.9-0.1-2.9-0.1c-0.7,0-1.3,0.1-2,0.3c-0.5,0.2-1,0.5-1.3,1
	c-0.4,0.7-0.6,1.4-0.7,2.2c-0.2,1.2-0.2,2.5-0.2,3.8c0,1.2,0,2.3,0.2,3.5c0.1,0.8,0.3,1.5,0.6,2.2c0.3,0.5,0.8,0.9,1.3,1.1
	c0.7,0.2,1.5,0.4,2.2,0.3c1.8,0,3.2,0,4.3-0.1s2-0.1,2.7-0.2V45c-0.6,0.3-1.3,0.5-2,0.6c-0.9,0.2-1.8,0.3-2.8,0.4
	C73.9,46.1,72.6,46.1,71.2,46.1L71.2,46.1z M46.1,46.3c-1.6,0-3.2-0.3-4.7-1c-1.2-0.6-2.3-1.5-3-2.6c-0.7-1.1-1.1-2.3-1.1-3.6
	c0-0.9,0.2-1.7,0.5-2.5c0.4-0.8,0.9-1.4,1.5-2c0.7-0.7,1.5-1.3,2.3-1.8l5.8-3.6c0.5-0.3,0.9-0.7,1.2-1.1c0.2-0.3,0.3-0.7,0.3-1
	c0-0.4-0.2-0.8-0.4-1.1c-0.4-0.3-0.9-0.5-1.4-0.5c-0.3,0-0.7,0.1-1,0.2c-0.3,0.1-0.5,0.3-0.7,0.6c-0.2,0.3-0.2,0.6-0.2,0.9
	c0,0.5,0.2,1,0.4,1.5c2.3,4.2,11.6,13.3,15.2,17.2h-6.9L43.5,35c-0.5-0.5-1.1-1.2-1.7-2c-0.6-0.8-1.2-1.7-1.6-2.7
	c-0.5-1-0.7-2.1-0.7-3.2c0-1.2,0.3-2.5,0.9-3.5c0.6-1.1,1.5-2,2.6-2.6c1.2-0.7,2.6-1,3.9-1c1.3,0,2.6,0.3,3.7,0.9
	c1,0.6,1.8,1.4,2.4,2.4c0.6,1,0.9,2.1,0.9,3.3c0,1.2-0.3,2.3-0.9,3.3c-0.6,1.1-1.5,2-2.5,2.7c-1.5,1.1-5.3,3.4-6.3,4.7
	c-0.3,0.4-0.5,0.9-0.4,1.4c0,0.4,0.1,0.9,0.3,1.2c0.2,0.4,0.6,0.6,1,0.8c0.5,0.2,1,0.3,1.5,0.3c0.9,0,1.8-0.2,2.5-0.6
	c0.9-0.4,1.7-1,2.3-1.7c1.5-1.6,2.4-3.8,2.3-6h5.4c0,1.4-0.1,2.9-0.5,4.3c-0.3,1.3-0.8,2.6-1.5,3.8c-0.7,1.1-1.6,2.1-2.7,2.9l-1,0.5
	l-1,0.5c-1,0.6-2.1,1.1-3.2,1.4c-1.1,0.3-2.2,0.4-3.3,0.4L46.1,46.3z M18.9,90h19.2v5.5H18.9V90z M18.9,76h27.3v5.5H18.9V76z
	 M18.9,62h58.3v5.5H18.9V62L18.9,62z M96.2,84.8c0,1.6-1.1,3-2.6,3.4l-31.6,33.3c-0.7,0.8-1.7,1.3-2.8,1.3H6.4
	c-3.5,0-6.4-2.9-6.4-6.4c0,0,0,0,0,0V6.4C0,2.9,2.9,0,6.4,0c0,0,0,0,0,0h83.3c3.5,0,6.4,2.9,6.4,6.4V84.8z M89,80.6V7.2H7.2v108.6
	h48.4V84.2c0-2,1.6-3.6,3.6-3.6l0,0H89z"/>
</svg>
