<svg xmlns="http://www.w3.org/2000/svg" xmlns:xlink="http://www.w3.org/1999/xlink" version="1.1" id="Layer_1" x="0px" y="0px" viewBox="0 0 512 512" style="enable-background:new 0 0 512 512;" xml:space="preserve" data-inject-url="https://eliterishtay.pk/public/shaadi_icons/Free_Rishta_Website.svg" class="svg-inject svg-icon">
<style type="text/css">
	.st0{fill:#FFFFFF;}
</style>
<g>
	<g>
		<polygon class="st0" points="389.6,205.9 389.6,172.5 300.5,172.5 300.5,339.5 389.6,339.5 389.6,306.1 333.9,306.1 333.9,272.7     389.6,272.7 389.6,239.3 333.9,239.3 333.9,205.9   "></polygon>
	</g>
</g>
<g>
	<g>
		<polygon class="st0" points="100.2,205.9 100.2,172.5 0,172.5 0,339.5 33.4,339.5 33.4,272.7 100.2,272.7 100.2,239.3 33.4,239.3     33.4,205.9   "></polygon>
	</g>
</g>
<g>
	<g>
		<polygon class="st0" points="512,205.9 512,172.5 423,172.5 423,339.5 512,339.5 512,306.1 456.3,306.1 456.3,272.7 512,272.7     512,239.3 456.3,239.3 456.3,205.9   "></polygon>
	</g>
</g>
<g>
	<g>
		<path class="st0" d="M133.6,172.5v167H167v-66.8h33.4v33.4h33.4v-33.4H256V172.5H133.6z M222.6,239.3H167v-33.4h55.7L222.6,239.3    L222.6,239.3z"></path>
	</g>
</g>
<g>
	<g>
		<rect x="233.7" y="306.1" class="st0" width="33.4" height="33.4"></rect>
	</g>
</g>
</svg>